{"glyphs":{"0":{"ha":692,"x_min":3,"x_max":681,"o":"m 624 722 q 681 471 681 613 q 586 114 681 276 q 506 -8 578 83 q 407 -67 449 -56 q 362 -87 390 -82 q 307 -97 333 -93 q 163 -52 229 -99 q 60 67 96 -6 q 3 335 3 182 q 29 532 3 436 q 250 872 93 768 q 365 897 304 897 q 515 849 454 897 q 624 722 558 821 m 461 572 q 376 628 419 628 q 307 600 349 628 q 208 274 203 499 q 318 121 233 133 q 438 222 381 121 q 489 444 489 343 q 461 572 489 517 z "},"1":{"ha":442,"x_min":-11,"x_max":433,"o":"m 433 886 q 285 -51 422 500 q 182 -85 249 -74 q 69 -103 125 -94 q 32 -87 32 -106 q 35 -76 32 -83 q 196 604 110 221 q 190 616 197 611 q 171 617 182 621 q 4 589 154 611 q -10 593 -8 588 q -8 610 -11 597 q 49 833 19 750 l 61 846 l 394 903 q 433 886 429 903 z "},"2":{"ha":688,"x_min":-12,"x_max":676,"o":"m 674 126 q 622 4 675 103 q 567 -100 567 -99 q 543 -121 564 -118 q 49 -76 301 -97 q 1 -83 13 -83 q -8 -74 -12 -83 q 14 -37 -6 -65 l 400 515 q 428 622 428 567 q 424 664 428 643 q 363 700 406 703 q 289 669 325 699 q 257 636 283 661 q 236 600 236 618 l 168 514 l 101 557 q 1 622 94 561 l 4 643 q 172 813 117 767 q 414 921 303 921 q 554 874 489 921 q 649 672 658 800 q 643 635 647 654 q 396 160 636 483 q 378 129 378 135 q 397 128 378 126 l 640 144 q 671 147 664 150 q 674 126 676 144 z "},"3":{"ha":543,"x_min":-15,"x_max":539,"o":"m 533 199 q 496 90 526 151 q 446 15 469 40 q 251 -86 382 -54 q 75 -108 150 -108 q 38 -107 54 -108 q 47 -36 38 -104 q 57 100 57 39 q 56 149 57 125 l 201 142 q 292 210 246 146 q 332 339 338 275 q 263 399 319 399 q 178 372 226 399 l 60 331 q 67 429 57 361 q 76 525 78 497 l 164 560 q 240 617 201 564 q 272 724 278 671 q 215 775 250 775 q 144 751 185 775 l 22 681 q 1 797 21 726 q -15 865 -15 864 q 213 908 125 908 q 264 903 243 908 q 367 853 333 883 q 417 747 406 817 q 421 696 421 719 q 369 529 421 631 q 456 476 408 507 q 526 350 524 418 q 536 282 532 339 q 533 199 539 222 z "},"4":{"ha":682,"x_min":-3,"x_max":686,"o":"m 686 375 q 664 226 683 367 l 654 219 l 632 222 l 611 224 q 621 222 618 222 q 625 219 631 221 q 585 219 618 218 q 579 39 582 160 l 578 -103 q 563 -121 575 -110 q 379 -103 503 -118 l 371 -92 q 378 197 372 4 q 361 225 375 210 q 213 243 240 243 l -3 271 q 61 613 21 381 q 100 810 72 678 q 106 860 100 826 q 114 908 113 894 l 132 919 q 279 888 153 913 l 285 876 q 232 468 251 681 q 249 451 236 456 q 274 444 263 447 q 288 440 286 440 l 288 442 q 326 436 301 439 q 372 436 372 436 q 382 467 382 446 q 383 500 383 499 q 393 838 382 611 q 465 854 394 838 q 538 863 507 864 q 586 871 567 875 q 593 849 593 863 q 590 825 593 844 q 590 801 588 810 q 590 605 590 736 q 588 407 589 474 q 649 400 592 407 q 574 399 544 404 q 624 397 590 400 q 674 393 657 393 l 686 375 z "},"5":{"ha":669,"x_min":0,"x_max":669,"o":"m 668 160 q 439 -65 647 -14 q 128 -89 347 -89 l 111 -76 q 143 119 122 -3 q 288 108 281 108 q 433 175 433 108 q 426 206 433 189 q 264 296 371 282 q 65 300 165 297 l 8 840 q 0 879 0 871 q 57 864 0 900 q 526 786 288 828 q 542 758 546 775 q 550 699 540 754 q 560 607 560 636 q 554 572 560 583 q 258 551 514 568 l 268 483 q 532 407 414 479 q 669 190 669 324 q 668 160 669 175 z "},"6":{"ha":588,"x_min":-22,"x_max":582,"o":"m 536 354 q 582 183 582 264 q 510 12 582 79 q 365 -72 439 -56 q 271 -87 299 -87 q 138 -33 211 -87 q 11 154 54 28 q -19 347 -22 256 q -17 456 -18 401 q 22 617 -11 531 q 261 871 94 804 q 369 886 299 886 q 481 865 457 886 q 486 815 486 850 q 472 678 486 760 q 463 667 471 667 q 440 675 458 667 q 413 681 422 683 q 239 614 290 682 q 194 501 217 585 q 283 528 240 528 q 319 522 303 528 q 436 474 399 499 q 536 354 497 433 m 394 257 q 351 328 382 300 q 285 356 319 356 q 219 323 243 356 q 196 247 196 290 q 203 200 196 224 q 247 128 217 156 q 314 101 278 101 q 379 136 354 101 q 401 210 401 167 q 394 257 401 233 z "},"7":{"ha":619,"x_min":-10,"x_max":618,"o":"m 618 872 q 410 -54 581 482 q 306 -81 374 -74 q 193 -92 193 -92 q 156 -76 156 -92 q 160 -64 156 -71 q 189 53 189 50 q 226 164 207 118 q 251 263 231 197 q 274 360 271 324 q 339 632 299 449 q 294 656 325 656 q 251 649 282 656 q 206 644 221 643 q 103 630 171 643 q 1 615 36 617 l -10 638 q 61 857 11 713 l 75 868 q 328 881 157 868 q 581 892 493 892 q 618 872 614 892 z "},"8":{"ha":632,"x_min":-10,"x_max":629,"o":"m 624 303 q 625 235 629 293 q 613 153 621 175 q 563 49 600 106 q 504 -21 531 1 q 310 -97 415 -97 q 115 -21 204 -97 q 57 49 89 1 q 7 153 19 106 q -6 235 -1 175 q -4 303 -10 293 q 51 436 -7 369 q 93 470 57 443 q 132 499 129 497 q 79 588 92 557 q 58 710 56 642 q 144 860 63 813 q 311 892 201 892 q 475 860 418 892 q 561 710 557 813 q 540 588 564 642 q 488 499 528 557 q 526 470 490 497 q 568 436 563 443 q 624 303 626 369 m 385 674 q 360 735 385 710 q 299 760 335 760 q 237 735 263 760 q 211 674 211 710 q 237 612 211 638 q 299 586 263 586 q 360 612 335 586 q 385 674 385 638 m 438 238 q 401 328 438 290 q 311 365 364 365 q 221 328 258 365 q 183 238 183 290 q 221 148 183 185 q 311 111 258 111 q 401 149 364 111 q 438 238 438 186 z "},"9":{"ha":585,"x_min":-10,"x_max":576,"o":"m 571 407 q 554 299 563 353 q 493 143 538 225 q 221 -78 397 -32 q 172 -83 201 -83 q 69 -71 121 -83 q 3 -42 17 -58 q 35 143 -7 10 q 44 153 38 153 q 68 142 50 153 q 96 132 86 131 q 146 128 122 128 q 288 186 238 128 q 336 282 307 210 q 264 267 297 267 q 210 278 235 267 q 99 343 135 311 q 15 475 44 390 q -10 611 -10 547 q 86 813 -10 743 q 243 878 167 871 q 310 882 290 882 q 465 808 389 882 q 576 488 576 700 q 571 407 576 443 m 249 697 q 191 658 214 692 q 168 578 168 624 q 200 481 168 525 q 289 440 238 432 q 348 479 325 446 q 371 558 371 513 q 339 657 371 614 q 249 697 301 706 z "}," ":{"ha":514,"x_min":0,"x_max":0,"o":""},"!":{"ha":485,"x_min":1,"x_max":535,"o":"m 519 979 q 508 955 514 972 q 497 929 503 938 q 371 575 453 813 q 196 56 311 403 q 179 49 189 49 q 153 57 171 49 q 129 67 136 65 q 111 72 117 69 q 104 83 106 75 q 146 306 119 157 q 171 407 150 342 q 249 789 183 503 l 317 1086 q 335 1107 321 1107 q 344 1103 340 1107 q 511 1017 399 1072 q 519 979 535 1007 m 201 -115 q 176 -168 186 -154 q 129 -200 157 -196 q 103 -204 117 -204 q 33 -183 71 -204 q 1 -100 1 -149 q 4 -74 1 -87 q 83 7 31 -6 q 165 -10 150 7 q 204 -87 204 -37 q 201 -115 204 -101 z "},"\"":{"ha":450,"x_min":14,"x_max":443,"o":"m 443 1015 l 385 768 l 376 761 l 228 760 q 228 811 221 774 l 265 1015 q 307 1024 279 1026 q 353 1024 343 1021 q 432 1026 376 1024 q 443 1015 443 1019 m 221 1008 l 176 765 l 169 757 l 25 760 q 24 811 14 778 l 43 1010 q 85 1021 56 1022 q 129 1024 121 1021 q 208 1019 156 1021 q 221 1008 214 1018 z "},"#":{"ha":1006,"x_min":3,"x_max":1019,"o":"m 1019 714 l 985 535 q 918 524 958 518 q 800 528 917 524 q 792 436 794 482 q 781 379 783 414 q 963 368 842 378 l 971 360 l 936 181 q 869 169 910 164 q 758 172 833 169 q 738 -1 754 114 q 686 -17 722 -17 q 629 -19 640 -15 q 532 -29 565 -25 q 515 -15 515 -19 l 540 178 q 449 175 481 178 q 406 181 431 181 q 382 -17 400 114 q 329 -31 365 -31 q 274 -33 286 -29 q 224 -38 257 -35 q 175 -43 192 -42 q 160 -29 160 -32 q 186 176 168 40 q 11 176 54 174 q 3 203 3 186 q 10 243 3 213 q 13 282 15 269 q 19 379 15 314 q 38 397 24 388 q 129 397 68 397 q 219 396 189 396 q 230 463 224 418 q 239 531 236 508 q 60 531 104 528 q 51 557 51 540 q 58 597 51 567 q 61 636 64 624 q 68 733 64 668 q 86 751 72 742 q 274 750 211 751 q 301 901 286 840 l 311 911 l 490 908 q 493 843 500 890 l 478 744 l 625 740 q 657 915 635 800 l 667 925 l 846 922 q 849 858 856 904 q 829 733 843 817 q 1011 722 892 732 l 1019 714 m 593 533 q 497 529 563 533 q 446 535 476 535 q 436 422 438 460 q 428 390 429 406 l 571 386 q 593 533 581 440 z "},"$":{"ha":642,"x_min":19,"x_max":644,"o":"m 640 740 q 626 708 638 738 q 597 653 615 694 q 563 600 581 618 l 546 600 q 383 706 449 700 q 344 667 357 693 q 444 518 354 594 q 576 382 553 425 q 606 333 592 364 q 631 282 631 282 q 635 221 635 250 q 563 21 635 97 q 436 -50 514 -29 l 422 -181 q 371 -194 407 -196 q 314 -197 325 -193 q 217 -208 282 -201 q 200 -194 210 -207 l 229 -37 q 222 -35 224 -35 q 38 107 100 21 q 26 126 36 108 q 19 146 19 139 q 24 160 19 153 q 133 321 54 206 q 165 294 151 318 q 193 258 183 265 q 381 156 306 156 q 415 160 397 156 q 444 206 435 175 q 407 272 439 239 q 349 328 378 300 q 190 465 226 426 q 113 646 113 553 q 119 706 113 675 q 174 835 124 775 q 292 915 224 894 l 303 1021 q 354 1036 318 1036 q 411 1039 400 1035 q 508 1050 439 1042 q 525 1036 517 1049 l 500 894 q 599 832 547 869 q 628 799 613 815 q 644 758 644 776 q 640 740 644 750 z "},"%":{"ha":836,"x_min":29,"x_max":833,"o":"m 739 781 q 708 735 731 765 q 525 406 644 626 q 269 -78 438 246 q 256 -82 263 -82 q 231 -71 246 -82 q 204 -56 211 -58 q 182 -35 183 -50 q 260 176 210 35 q 301 272 271 211 q 442 636 325 350 l 557 919 q 576 936 564 936 q 588 932 582 936 q 736 818 636 893 q 747 800 747 813 q 739 781 747 789 m 339 826 q 367 700 367 771 q 319 522 367 603 q 279 461 317 508 q 231 432 253 438 q 181 417 226 428 q 57 499 97 414 q 29 633 29 557 q 42 731 29 683 q 151 901 75 850 q 208 914 178 914 q 285 889 254 914 q 339 826 306 876 m 804 306 q 833 182 833 253 q 786 1 833 85 q 746 -60 782 -14 q 696 -89 719 -82 q 647 -104 693 -92 q 522 -22 564 -107 q 494 111 494 35 q 507 211 494 163 q 618 381 538 328 q 676 393 644 393 q 750 369 721 393 q 804 306 779 351 m 257 751 q 226 776 246 769 q 181 765 208 783 q 132 601 126 714 q 186 525 144 531 q 246 576 217 525 q 271 688 271 638 q 257 751 271 724 m 724 231 q 693 257 710 249 q 647 244 672 264 q 597 81 594 193 q 651 6 610 13 q 711 56 683 6 q 738 167 738 115 q 724 231 738 203 z "},"&":{"ha":807,"x_min":19,"x_max":826,"o":"m 822 101 q 774 15 826 79 q 708 -65 710 -62 q 697 -72 706 -67 q 686 -72 692 -75 q 585 28 644 -29 q 442 -67 532 -25 q 307 -96 379 -96 q 100 -15 179 -96 q 26 185 26 60 q 31 244 26 214 q 82 344 43 279 q 147 424 100 379 q 128 442 135 433 q 67 516 114 460 q 19 646 19 572 q 46 751 19 699 q 53 761 47 756 l 65 779 l 67 779 q 74 788 69 782 q 81 794 79 793 q 154 850 117 822 q 235 889 192 878 q 358 883 333 896 q 478 803 426 863 q 536 674 531 744 q 544 611 544 642 q 457 422 544 515 q 522 372 481 407 q 822 101 638 272 m 311 632 q 272 671 300 658 q 235 661 253 668 q 225 643 226 658 q 229 624 222 629 q 290 568 249 604 q 311 632 307 597 m 415 179 q 358 232 396 197 q 300 283 319 267 q 249 232 260 246 q 218 169 222 201 q 247 125 229 136 q 282 121 264 121 q 415 179 343 121 z "},"'":{"ha":222,"x_min":-10,"x_max":217,"o":"m 217 1015 l 157 768 l 150 761 l 0 760 q 1 811 -10 779 l 38 1015 q 79 1024 51 1026 q 125 1024 115 1021 q 204 1026 149 1024 q 217 1015 210 1025 z "},"(":{"ha":378,"x_min":11,"x_max":385,"o":"m 385 1032 l 382 836 q 361 819 382 829 q 250 732 294 790 q 188 507 182 643 q 242 235 194 342 q 344 89 276 157 q 365 61 365 72 l 361 -169 q 210 -42 283 -128 q 71 183 122 57 q 29 343 49 236 q 11 494 11 446 q 44 746 13 646 q 192 944 83 865 q 385 1032 275 1006 z "},")":{"ha":378,"x_min":1,"x_max":376,"o":"m 376 376 q 342 126 376 236 q 196 -72 304 7 q 1 -160 111 -133 l 4 36 q 26 53 6 43 q 138 140 93 82 q 199 365 206 229 q 42 782 186 643 q 21 811 32 790 l 26 1042 q 178 914 104 999 q 317 689 267 814 q 357 531 338 636 q 376 376 376 426 z "},"*":{"ha":842,"x_min":7,"x_max":836,"o":"m 836 386 l 797 197 q 743 204 781 189 q 646 247 722 213 q 581 272 594 272 q 575 265 574 272 q 611 40 590 190 l 604 32 l 413 11 q 388 67 394 26 q 329 225 385 83 q 183 132 243 164 l 171 133 l 36 271 q 74 313 40 294 q 169 372 85 321 q 221 414 221 404 q 217 418 221 417 q 11 513 147 447 l 7 524 l 97 693 q 157 683 124 701 q 326 642 169 678 q 328 649 328 644 q 329 656 329 654 q 376 872 343 729 l 386 881 l 579 878 q 582 824 594 858 q 561 728 578 794 q 547 658 547 672 q 556 647 547 644 q 768 725 626 676 l 779 721 l 835 536 q 785 501 824 514 q 703 454 751 486 q 831 397 746 438 l 836 386 z "},"+":{"ha":829,"x_min":-10,"x_max":853,"o":"m 853 536 l 831 344 q 771 333 807 328 q 510 343 685 338 q 508 324 510 329 q 488 197 499 282 q 468 69 478 111 q 411 57 450 57 q 351 56 364 58 l 247 47 q 229 58 239 49 q 278 339 244 153 q 265 339 265 339 q -1 340 175 336 q -10 372 -10 351 q -6 413 -10 382 q -4 453 -1 439 q -4 504 -4 471 q -3 556 -3 539 q 11 575 0 564 q 322 569 117 575 q 382 854 339 665 l 392 863 l 585 860 q 588 806 594 847 q 540 561 571 725 q 846 544 643 560 l 853 536 z "},",":{"ha":231,"x_min":0,"x_max":203,"o":"m 199 178 l 178 -10 q 136 -21 165 -21 q 92 -24 101 -21 q 14 -32 54 -25 q 0 -21 8 -31 l 44 224 l 53 232 l 196 229 q 199 178 203 217 z "},"-":{"ha":669,"x_min":-10,"x_max":643,"o":"m 643 549 l 621 357 q 561 346 599 340 q 479 353 506 347 q 393 350 464 356 q 332 354 371 357 q 265 350 278 350 q -1 350 175 347 q -10 382 -10 361 q -6 424 -10 393 q -4 464 -1 450 q -4 515 -4 481 q -3 567 -3 549 q 11 586 0 575 q 211 582 129 586 q 410 571 347 574 q 636 557 486 569 l 643 549 z "},".":{"ha":250,"x_min":15,"x_max":218,"o":"m 215 68 q 190 17 200 31 q 143 -17 171 -11 q 47 1 97 -26 q 15 85 15 36 q 18 111 15 97 q 97 192 44 179 q 142 192 119 192 q 179 175 167 189 q 218 96 218 147 q 215 68 218 82 z "},"/":{"ha":406,"x_min":13,"x_max":439,"o":"m 439 874 q 279 442 378 718 q 104 -78 219 269 q 88 -85 97 -85 q 62 -76 79 -85 q 38 -67 44 -68 q 22 -62 25 -64 q 13 -50 14 -58 q 54 172 28 24 q 79 274 58 208 q 158 656 92 361 l 226 954 q 244 974 229 974 q 254 971 249 974 q 439 874 318 936 z "},":":{"ha":210,"x_min":-6,"x_max":197,"o":"m 194 606 q 169 554 179 568 q 122 521 150 526 q 26 539 76 511 q -6 621 -6 574 q -3 647 -6 635 q 76 729 24 717 q 121 729 99 729 q 158 713 146 726 q 197 633 197 682 q 194 606 197 619 m 194 161 q 169 110 179 124 q 122 76 150 82 q 26 94 76 67 q -6 176 -6 129 q -3 203 -6 190 q 76 285 24 272 q 121 285 99 285 q 158 268 146 282 q 197 189 197 238 q 194 161 197 175 z "},";":{"ha":203,"x_min":-10,"x_max":201,"o":"m 199 606 q 172 554 179 564 q 126 521 154 526 q 31 539 81 511 q -1 621 -1 574 q 1 647 -1 635 q 81 729 28 717 q 125 729 103 729 q 163 713 150 726 q 201 633 201 682 q 199 606 201 619 m 176 196 l 157 8 q 115 -3 143 -4 q 69 -6 79 -1 q 4 -7 50 -6 q -10 4 -3 -6 l 10 242 l 18 249 l 174 247 q 176 196 181 236 z "},"<":{"ha":626,"x_min":-11,"x_max":610,"o":"m 610 179 l 603 171 q -3 593 558 203 q -10 606 -11 603 q 0 616 -6 611 q 282 744 6 621 q 603 885 558 868 l 608 875 q 596 686 607 811 q 583 660 596 668 q 464 615 563 646 q 333 569 361 583 q 324 563 324 567 q 336 551 324 557 q 589 392 429 507 q 599 347 597 376 q 601 300 601 301 q 610 179 603 260 z "},"=":{"ha":896,"x_min":-3,"x_max":899,"o":"m 899 768 l 872 576 q 813 567 851 560 q 649 575 782 568 q 476 582 542 582 q 397 579 433 582 q 336 583 375 586 q 271 581 285 579 q 200 583 240 583 l 94 583 q 10 588 46 585 q 1 617 1 599 q 7 660 1 628 q 8 700 11 686 l 13 803 q 28 821 15 811 q 628 794 188 818 q 892 776 724 792 l 899 768 m 860 488 l 838 296 q 778 285 814 279 q 590 292 765 285 q 400 290 478 296 q 339 294 378 297 q 272 290 285 290 q 6 292 183 288 q -3 324 -3 303 q 1 364 -3 333 q 3 404 6 390 q 4 507 4 439 q 18 526 7 515 q 626 510 150 526 q 853 496 703 508 l 860 488 z "},">":{"ha":588,"x_min":-3,"x_max":618,"o":"m 610 463 q 617 449 618 453 q 606 440 611 444 q 325 311 601 435 q 4 171 49 188 l -1 181 q 11 369 0 244 q 24 396 11 388 q 145 441 44 410 q 274 486 246 472 q 283 493 283 489 q 271 504 283 499 q 18 664 178 549 q 8 708 10 679 q 6 756 6 754 q -3 876 6 796 l 4 885 q 610 463 49 854 z "},"?":{"ha":531,"x_min":-4,"x_max":549,"o":"m 544 725 q 476 543 526 642 q 396 383 436 463 q 357 192 369 324 q 329 4 342 46 q 267 -15 324 -15 q 196 29 203 -15 q 192 104 194 67 q 189 228 189 172 q 211 431 189 369 q 288 607 240 489 q 299 661 299 643 q 193 719 299 707 q 99 710 161 719 q 6 699 38 700 l -4 719 q 68 918 18 788 l 81 929 q 344 932 226 943 q 491 875 433 924 q 549 758 549 826 q 544 725 549 742 m 381 -189 q 356 -242 365 -228 q 308 -274 336 -269 q 283 -276 296 -276 q 213 -257 251 -276 q 181 -174 181 -219 q 183 -147 181 -160 q 263 -65 210 -81 q 307 -65 285 -65 q 344 -82 332 -68 q 383 -161 383 -112 q 381 -189 383 -175 z "},"@":{"ha":788,"x_min":1,"x_max":782,"o":"m 718 818 q 782 531 782 693 q 708 185 782 351 l 547 158 l 544 160 l 521 154 l 475 146 q 471 156 472 149 l 456 218 q 443 243 454 229 l 421 243 q 397 243 411 243 q 381 242 383 242 q 346 242 369 243 q 324 224 325 239 q 317 181 322 210 q 313 167 317 176 q 306 164 310 164 q 203 171 257 165 q 201 185 197 176 q 288 472 238 308 q 372 751 374 746 q 383 771 378 771 q 394 758 388 771 q 485 469 399 736 q 557 263 489 456 l 594 272 q 639 539 639 417 q 593 758 639 663 q 447 853 522 853 q 329 804 403 853 q 160 243 150 628 q 347 -18 204 4 q 497 72 428 -18 l 668 100 q 581 -25 657 71 q 467 -92 514 -79 q 415 -116 447 -110 q 353 -128 382 -122 q 185 -76 264 -129 q 67 61 107 -22 q 1 372 1 196 q 31 599 1 489 q 286 992 104 871 q 419 1021 349 1021 q 592 964 524 1021 q 718 818 643 932 m 414 342 q 414 367 421 343 l 389 458 q 378 458 382 469 l 357 368 q 357 342 351 343 l 414 342 z "},"A":{"ha":626,"x_min":-1,"x_max":632,"o":"m 628 -3 q 629 -19 632 -10 q 618 -29 626 -29 l 467 -68 q 456 -71 461 -71 q 440 -51 442 -71 l 414 49 q 408 73 411 61 q 394 89 404 85 q 358 89 358 89 q 294 86 333 88 q 238 86 275 88 q 203 59 207 83 q 192 -11 200 35 q 185 -33 190 -19 q 172 -39 182 -36 q 8 -28 94 -36 q 6 -6 -1 -19 q 144 458 64 193 q 281 906 282 896 q 286 922 281 906 q 299 938 292 938 q 317 917 306 938 q 461 454 322 886 q 543 219 479 397 q 628 -3 617 14 m 349 247 q 356 264 358 250 q 349 289 351 276 l 307 435 q 297 446 301 446 q 290 435 294 446 l 257 289 q 251 250 249 254 q 257 247 253 247 l 349 247 z "},"B":{"ha":606,"x_min":3,"x_max":600,"o":"m 599 261 q 568 150 596 214 q 525 71 546 97 q 336 -42 467 -1 q 125 -79 206 -83 q 61 410 124 -67 q 6 888 3 857 q 249 947 161 947 q 281 944 267 947 q 388 901 351 931 q 444 800 428 868 q 453 729 453 763 q 413 578 453 674 q 455 558 415 578 q 501 532 494 538 q 582 411 572 478 q 594 362 588 404 q 600 286 600 319 q 599 261 600 269 m 303 765 q 247 811 290 811 q 174 785 217 811 l 206 596 q 271 649 238 601 q 304 746 304 697 q 303 765 304 756 m 388 369 q 321 424 372 424 q 232 392 283 424 l 271 164 q 349 228 310 171 q 389 346 389 286 q 388 369 389 358 z "},"C":{"ha":592,"x_min":-1,"x_max":636,"o":"m 635 897 q 569 706 636 840 q 560 696 565 696 q 535 712 553 696 q 506 730 518 728 q 479 732 493 732 q 331 638 410 732 q 246 497 286 583 q 199 325 200 396 q 238 182 199 235 q 296 142 268 142 l 296 139 q 351 131 326 131 q 453 175 411 131 q 504 254 468 192 q 514 261 510 261 q 522 256 519 261 q 524 249 524 251 q 578 117 531 239 q 581 79 588 93 q 442 -46 540 -4 q 296 -72 367 -76 q 178 -53 213 -67 q 71 39 125 -32 q -1 293 -1 135 q 26 483 -1 397 q 167 738 69 610 q 511 942 325 942 q 635 897 607 942 z "},"D":{"ha":594,"x_min":10,"x_max":579,"o":"m 576 525 q 532 258 579 357 q 426 82 486 156 q 82 -93 281 -94 q 49 438 88 -74 q 11 957 10 950 q 69 961 18 961 q 301 924 196 961 q 513 742 456 868 q 508 753 508 750 q 508 754 508 754 q 544 686 518 754 q 576 525 575 604 m 404 525 q 331 710 403 639 q 217 776 283 757 q 192 750 183 783 l 247 143 q 356 275 322 208 q 404 525 406 374 z "},"E":{"ha":465,"x_min":11,"x_max":472,"o":"m 472 729 q 454 707 472 711 q 238 704 439 708 q 222 701 226 704 q 214 685 218 699 q 213 599 213 679 q 213 513 211 519 q 239 483 214 483 l 385 485 q 410 468 410 485 q 411 349 411 408 q 400 335 411 335 l 221 329 q 197 301 197 328 q 194 136 196 301 q 201 112 194 115 q 235 107 208 108 l 438 101 q 446 94 443 101 q 442 -68 444 97 q 436 -85 443 -81 q 422 -89 429 -89 l 38 -85 q 11 -64 13 -85 q 28 910 19 419 q 33 921 28 919 l 456 929 q 468 910 468 926 l 472 729 z "},"F":{"ha":460,"x_min":0,"x_max":485,"o":"m 485 715 q 481 700 485 704 q 465 696 476 696 q 243 707 465 696 q 219 689 226 708 q 215 606 218 683 q 215 521 214 528 q 242 490 217 493 q 318 486 242 490 q 390 483 354 485 q 407 479 397 482 q 417 464 417 476 q 415 349 417 407 q 404 336 415 336 l 221 342 q 202 338 206 342 q 196 315 199 333 q 185 -47 193 171 q 169 -62 182 -64 l 28 -53 q 0 -31 3 -51 l 32 919 q 38 931 32 929 l 471 913 q 483 893 483 908 l 485 715 z "},"G":{"ha":679,"x_min":-1,"x_max":675,"o":"m 675 -33 q 665 -62 675 -58 q 610 -75 646 -65 q 375 -72 475 -94 q 106 103 190 -7 q -1 449 -1 242 q 64 731 -1 607 q 268 935 135 865 q 349 953 304 953 q 490 906 426 953 q 521 863 507 893 q 453 703 515 843 q 389 747 433 721 q 344 754 367 754 q 257 721 292 754 q 157 456 157 622 q 188 290 157 368 q 279 180 214 222 q 422 139 344 138 q 435 156 435 143 q 432 173 435 161 q 431 190 429 185 q 417 235 422 204 q 404 279 411 267 q 401 303 403 282 q 390 321 400 315 q 363 315 383 321 q 331 311 343 308 q 319 338 322 319 q 313 365 314 361 q 289 474 289 456 q 418 528 329 499 q 550 575 519 560 q 557 574 554 574 q 570 577 563 574 q 582 581 578 581 q 592 578 588 581 q 631 418 619 492 q 609 403 624 408 q 581 392 594 397 q 579 369 576 383 q 583 347 583 351 q 675 -33 614 221 z "},"H":{"ha":724,"x_min":4,"x_max":715,"o":"m 706 829 q 658 235 668 478 q 646 35 657 169 q 646 -65 644 1 l 629 -79 q 478 -65 618 -76 l 472 -56 q 475 150 475 49 q 472 356 475 251 q 451 371 465 368 q 425 375 438 374 q 351 379 390 379 q 278 375 314 379 q 272 344 271 364 q 275 311 275 314 q 308 -25 292 201 q 239 -51 303 -26 q 168 -68 197 -67 q 121 -83 143 -85 q 110 -49 110 -74 q 108 -15 111 -24 q 21 743 79 236 l 4 883 q 18 903 7 892 q 201 910 183 911 l 211 900 q 242 613 222 804 q 261 586 247 592 q 361 581 261 586 q 461 582 421 576 q 472 601 472 586 q 475 619 472 615 q 474 779 469 676 q 475 940 478 892 l 492 950 l 706 943 q 715 907 715 928 q 710 867 715 893 q 706 829 706 842 z "},"I":{"ha":360,"x_min":19,"x_max":360,"o":"m 353 843 q 319 635 336 739 q 296 422 301 511 q 285 353 286 397 q 279 281 282 294 q 242 -17 269 181 q 190 -31 226 -31 q 133 -33 144 -29 q 36 -43 101 -37 q 19 -29 29 -42 q 117 649 43 160 q 161 901 129 733 l 171 911 l 350 908 q 353 843 360 893 z "},"J":{"ha":621,"x_min":3,"x_max":610,"o":"m 610 838 q 574 458 592 647 q 517 28 547 201 q 458 -66 506 -32 q 340 -100 410 -100 q 253 -86 297 -100 q 121 -39 167 -60 q 11 19 99 -29 l 3 35 q 14 244 3 50 l 31 260 q 114 214 61 247 q 196 168 167 181 q 269 154 244 154 q 313 175 300 154 q 326 236 322 190 q 392 949 356 556 q 406 968 390 968 q 429 963 414 968 q 526 906 478 933 q 610 838 583 868 z "},"K":{"ha":597,"x_min":1,"x_max":625,"o":"m 622 857 q 451 440 546 663 q 464 394 449 410 q 543 172 508 358 q 576 -36 560 68 q 557 -71 582 -62 q 410 -89 507 -86 q 386 -64 388 -89 q 360 147 376 79 q 253 299 326 281 q 224 281 226 304 l 213 -42 q 215 -53 215 -47 q 179 -87 215 -75 q 83 -103 135 -101 q 17 -101 50 -101 l 1 -89 q 35 915 1 -67 q 64 929 36 921 q 126 922 78 922 q 190 924 197 924 q 210 919 199 919 q 224 894 221 919 l 224 517 q 256 522 235 504 q 411 899 265 539 q 446 929 424 929 q 461 928 453 929 q 582 890 500 914 q 608 883 585 888 q 625 869 625 881 q 622 857 625 864 z "},"L":{"ha":608,"x_min":-14,"x_max":597,"o":"m 597 189 q 542 -21 582 121 l 528 -35 q 278 -62 444 -40 q 25 -90 111 -85 q -14 -72 -10 -92 q 43 426 -10 106 q 132 865 90 717 q 228 892 167 886 q 333 903 314 899 q 371 888 371 906 q 368 876 371 882 q 249 157 272 390 q 585 210 386 181 l 597 189 z "},"M":{"ha":783,"x_min":-4,"x_max":763,"o":"m 761 -39 q 760 -75 756 -46 q 743 -100 763 -96 q 581 -128 664 -106 q 563 -110 563 -125 q 563 -12 563 -12 q 561 79 561 25 l 561 185 q 557 314 560 263 l 551 324 q 531 300 535 319 q 524 269 526 272 q 490 168 511 236 q 463 96 485 143 q 432 -18 454 49 q 396 -128 414 -72 l 389 -135 l 381 -125 q 251 226 339 -7 q 236 235 238 236 q 213 82 222 189 q 190 -74 204 -25 q 121 -76 164 -83 q 1 -64 79 -76 l -4 -54 q 75 333 18 78 q 84 396 71 357 q 96 456 97 435 q 112 517 106 474 q 126 578 118 560 q 149 688 136 614 q 182 836 163 736 q 192 871 189 843 q 210 897 194 893 q 231 826 221 871 q 246 754 244 761 q 315 485 269 664 q 342 367 328 425 q 381 272 364 272 q 397 294 392 279 q 407 324 403 310 q 471 494 428 382 q 508 583 488 522 q 674 956 563 708 q 694 956 692 964 q 761 -39 731 289 z "},"N":{"ha":594,"x_min":1,"x_max":640,"o":"m 638 936 q 635 908 640 924 q 625 878 631 892 q 469 319 579 708 q 429 181 460 272 q 353 -99 396 26 q 333 -83 338 -100 q 326 -57 331 -71 q 193 310 285 67 l 176 322 q 167 264 165 303 q 164 203 167 217 q 160 -79 164 -22 q 144 -94 158 -92 q 122 -99 124 -99 q 67 -108 108 -99 q 8 -112 32 -115 l 1 -86 q 40 813 13 215 l 47 939 q 66 930 63 943 q 72 904 69 917 q 108 825 88 879 q 278 469 165 707 q 293 429 285 450 q 319 404 301 408 l 326 414 q 417 865 354 565 q 429 907 417 897 q 638 936 528 936 z "},"O":{"ha":678,"x_min":-6,"x_max":671,"o":"m 615 736 q 671 485 671 626 q 578 128 671 290 q 497 6 569 97 q 399 -53 440 -42 q 350 -74 382 -68 q 299 -83 324 -79 q 153 -38 221 -85 q 51 81 86 8 q -6 349 -6 196 q 21 546 -6 450 q 242 886 85 782 q 357 911 294 911 q 507 863 446 911 q 615 736 550 835 m 453 586 q 367 642 410 642 q 299 614 340 642 q 200 288 194 513 q 310 135 225 147 q 429 236 372 135 q 479 458 479 357 q 453 586 479 531 z "},"P":{"ha":585,"x_min":1,"x_max":615,"o":"m 596 572 q 474 371 575 436 q 411 340 446 354 q 222 285 328 306 l 167 -60 q 150 -85 168 -75 q 81 -87 140 -89 q 28 -86 28 -86 q 1 -69 4 -83 q 83 776 40 276 q 100 904 89 819 l 117 914 q 301 879 210 896 q 517 785 443 844 q 596 572 615 703 m 394 642 q 346 690 381 674 q 317 697 335 690 q 292 703 300 703 q 274 697 282 703 l 247 500 q 389 565 326 499 q 394 642 411 604 z "},"Q":{"ha":738,"x_min":-3,"x_max":733,"o":"m 733 49 q 582 -124 729 40 q 564 -133 568 -135 q 438 51 543 -106 q 399 31 425 39 q 357 15 361 17 q 319 13 339 13 q 99 132 183 13 q -3 490 -3 275 q 158 917 -3 771 q 306 961 224 961 q 411 935 365 961 q 532 832 456 914 q 629 499 629 699 q 588 256 629 369 l 583 239 q 733 49 649 163 m 431 335 q 450 485 450 415 q 400 668 450 597 q 336 707 371 700 q 253 669 301 714 q 194 476 194 593 q 208 349 194 421 q 333 222 253 222 q 431 335 392 232 z "},"R":{"ha":668,"x_min":25,"x_max":714,"o":"m 710 21 q 714 8 714 14 q 697 -6 714 -1 q 674 -15 676 -11 q 608 -42 651 -21 q 535 -67 564 -62 q 511 -40 521 -60 q 494 -8 496 -11 q 438 94 471 22 q 383 196 406 165 q 326 313 361 256 q 294 315 304 328 q 286 296 286 308 q 290 277 286 290 q 293 257 293 264 q 288 242 293 249 q 296 117 299 188 q 310 -50 297 61 q 287 -76 308 -72 q 243 -83 265 -81 q 176 -97 221 -85 q 147 -87 165 -99 q 38 769 108 260 q 25 900 36 775 l 39 913 q 159 919 78 913 q 281 925 240 925 q 383 917 338 925 q 396 919 389 919 q 416 915 403 919 q 436 911 429 911 q 449 914 443 911 q 563 828 519 888 q 613 692 607 769 q 515 456 622 556 q 501 425 501 436 q 508 410 501 415 q 528 375 519 400 q 544 342 538 350 q 592 254 556 315 q 636 164 624 200 q 710 21 661 117 m 408 625 q 399 701 424 668 q 338 739 378 729 q 300 740 331 738 q 265 729 276 742 l 274 604 q 271 565 271 546 q 283 528 271 542 q 408 625 360 542 z "},"S":{"ha":631,"x_min":7,"x_max":632,"o":"m 628 761 q 614 729 625 758 q 583 674 603 714 q 550 621 567 639 l 532 621 q 458 689 483 671 q 371 725 414 722 q 332 688 343 715 q 431 539 342 615 q 564 401 540 444 q 618 303 567 399 q 622 242 622 271 q 550 42 622 117 q 339 -42 469 -42 q 208 -14 269 -42 q 25 128 83 43 q 14 146 25 128 q 7 165 7 158 q 11 179 7 172 q 121 342 51 240 q 153 315 140 339 q 181 278 171 285 q 368 175 290 175 q 403 179 385 175 q 431 225 419 192 q 394 293 425 260 q 336 349 365 321 q 178 486 215 444 q 100 665 100 574 q 107 725 100 694 q 167 861 111 801 q 293 942 215 915 q 406 944 318 951 q 586 853 485 926 q 615 819 600 836 q 632 779 632 797 q 628 761 632 769 z "},"T":{"ha":740,"x_min":35,"x_max":711,"o":"m 711 725 q 618 707 681 710 q 521 697 544 703 q 486 667 488 689 q 436 -64 451 196 q 376 -81 419 -82 l 218 -75 q 210 -40 210 -61 q 213 -7 210 -33 q 214 29 215 15 q 244 515 222 190 l 256 639 q 229 663 246 663 q 47 643 169 654 q 35 672 35 654 q 38 697 35 679 q 39 725 40 715 l 50 853 q 175 885 74 875 q 700 939 349 906 l 711 924 l 711 725 z "},"U":{"ha":703,"x_min":0,"x_max":665,"o":"m 665 806 q 556 149 640 358 q 314 -92 475 -53 q 263 -97 289 -97 q 136 -64 196 -97 q 40 39 71 -26 q 0 258 0 125 q 44 604 0 394 q 119 926 82 765 q 144 956 139 956 l 304 935 q 321 907 326 932 q 247 611 289 808 q 201 315 206 403 q 215 199 199 251 q 275 128 235 138 q 404 264 365 129 q 435 475 414 297 q 461 807 458 679 q 474 826 461 821 l 639 833 q 665 806 664 835 z "},"V":{"ha":674,"x_min":8,"x_max":722,"o":"m 722 926 q 307 -67 692 867 q 294 -78 299 -78 q 283 -64 293 -78 q 151 358 278 -56 q 8 835 28 765 l 18 842 q 207 826 49 842 q 221 826 214 826 q 233 808 226 825 q 281 658 247 778 q 331 493 318 528 q 338 481 333 481 q 349 497 343 481 q 501 908 478 865 q 544 921 517 919 q 592 925 589 925 q 714 936 633 926 l 722 926 z "},"W":{"ha":981,"x_min":4,"x_max":1051,"o":"m 1051 960 q 871 394 1000 815 q 722 -89 735 -53 q 710 -112 714 -112 q 703 -101 707 -112 q 696 -86 699 -90 q 513 456 550 357 q 497 446 503 456 q 486 426 492 436 q 304 -93 469 379 q 292 -103 296 -103 q 281 -89 290 -103 q 147 335 275 -82 q 4 811 24 740 l 14 818 q 203 803 44 818 q 217 803 210 803 q 231 785 222 801 q 278 636 244 754 q 326 469 314 504 q 339 443 333 443 q 351 469 346 443 q 503 871 404 625 q 508 879 507 879 q 517 868 513 879 q 686 410 533 822 q 696 392 693 392 q 704 414 700 392 q 758 672 719 493 q 815 914 803 882 q 861 935 831 929 q 911 944 886 940 q 1042 971 956 951 l 1051 960 z "},"X":{"ha":681,"x_min":-6,"x_max":688,"o":"m 682 832 q 660 768 688 806 q 474 443 596 663 q 558 256 503 368 q 647 72 632 107 q 665 7 671 35 l 485 -51 l 472 -46 q 349 197 457 -19 q 346 203 349 200 q 218 -35 306 122 q 200 -37 210 -37 q 153 -24 185 -37 q 105 -8 121 -10 q 56 4 89 -6 q 6 18 22 14 q -6 39 -6 38 q 228 450 69 178 q 40 851 164 583 q 43 862 39 857 q 51 871 47 867 q 154 890 79 875 q 200 901 169 890 q 246 911 231 911 q 268 907 258 911 q 365 688 279 886 q 494 899 407 760 l 507 904 l 682 832 z "},"Y":{"ha":692,"x_min":-1,"x_max":713,"o":"m 713 881 q 570 631 690 849 q 450 406 450 413 q 438 190 444 374 q 424 -29 431 7 q 414 -40 424 -39 l 222 -24 q 207 -7 204 -22 q 247 397 225 185 q 3 878 49 783 q 8 890 -1 888 q 179 899 81 893 q 224 885 210 901 q 344 618 304 690 q 354 608 349 608 q 363 618 360 608 q 490 890 467 857 q 592 892 506 896 q 704 889 692 888 l 713 881 z "},"Z":{"ha":596,"x_min":-11,"x_max":589,"o":"m 579 -46 q 574 -72 581 -72 q 547 -58 578 -72 q 4 190 94 146 q -1 219 -11 197 q 242 693 40 321 q 253 718 253 713 q 235 724 253 722 l 51 708 q 26 710 31 707 q 21 726 22 713 q -3 881 7 781 q 15 897 -3 897 q 277 913 21 897 q 540 931 533 929 q 572 933 561 933 q 589 924 589 933 q 576 890 589 917 l 272 276 q 278 269 267 271 q 533 193 436 226 q 558 168 556 183 q 579 -46 574 78 z "},"[":{"ha":461,"x_min":-6,"x_max":481,"o":"m 481 785 q 453 774 471 768 q 358 781 406 778 q 264 779 303 785 q 214 781 251 788 q 224 297 217 593 q 219 229 217 272 q 221 158 221 171 q 218 60 218 107 q 318 54 251 58 q 432 40 357 53 l 438 32 l 444 -156 q 417 -168 436 -171 q 349 -162 399 -167 q 282 -158 307 -158 q 228 -162 253 -158 q 197 -158 217 -156 q 165 -162 165 -162 q 99 -162 143 -160 q 32 -161 54 -165 q 31 -158 32 -161 q 24 -160 29 -158 q 15 -160 18 -160 q -1 -146 8 -158 q 1 749 -6 190 q 18 999 6 833 l 28 1007 l 49 1007 q 50 1010 49 1008 q 354 994 122 1011 q 468 982 393 993 l 474 972 l 481 785 z "},"\\":{"ha":606,"x_min":-28,"x_max":619,"o":"m 619 -11 q 600 -35 618 -28 q 565 -50 582 -43 q 536 -57 547 -62 q 411 126 496 6 q 358 214 390 154 q 147 535 311 275 l -12 788 q -4 819 -28 813 q 171 874 56 836 q 179 876 175 876 q 201 854 199 876 q 213 830 204 846 q 222 804 221 814 q 379 469 272 692 q 619 -11 457 308 z "},"]":{"ha":510,"x_min":-1,"x_max":485,"o":"m 481 953 q 478 57 485 617 q 461 -192 475 -26 l 451 -201 l 431 -200 q 429 -204 431 -197 q 125 -189 343 -204 q 11 -175 88 -187 l 6 -167 l -1 21 q 26 33 7 36 q 94 28 44 32 q 163 24 138 24 q 215 28 190 24 q 265 26 228 19 q 256 510 264 215 q 260 576 263 533 q 258 649 258 636 q 261 746 261 701 q 161 753 228 749 q 47 767 124 756 l 42 775 l 35 963 q 63 974 44 979 q 156 967 68 974 q 251 968 213 963 q 282 964 263 961 q 314 968 314 968 q 381 968 336 965 q 447 968 425 971 q 449 965 447 967 q 456 967 450 965 q 464 967 461 967 q 481 953 472 965 z "},"^":{"ha":696,"x_min":6,"x_max":693,"o":"m 693 451 l 683 447 q 499 457 628 447 q 485 457 492 457 q 472 468 479 458 q 426 564 458 488 q 378 669 392 647 q 371 678 375 678 q 360 667 365 678 q 222 464 310 574 q 181 456 207 457 q 132 453 156 454 q 14 446 93 451 l 6 451 q 400 1026 36 490 q 414 1033 410 1035 q 424 1024 418 1029 q 553 756 429 1019 q 693 451 676 493 z "},"_":{"ha":1031,"x_min":-4,"x_max":1025,"o":"m 1025 -79 l 1003 -267 q 944 -278 981 -283 q 390 -272 461 -267 q 331 -269 369 -265 q 267 -272 279 -274 q 4 -271 178 -275 q -4 -240 -4 -260 q 0 -200 -4 -231 q 1 -161 4 -174 q 3 -60 3 -126 q 17 -42 6 -51 q 794 -57 308 -40 q 1017 -69 869 -58 l 1025 -79 z "},"`":{"ha":314,"x_min":-6,"x_max":300,"o":"m 290 882 l 200 883 l 192 890 l -6 1118 q 6 1129 -6 1122 q 83 1126 58 1126 q 128 1126 93 1124 q 169 1118 157 1128 l 290 933 q 290 882 300 899 z "},"a":{"ha":626,"x_min":-1,"x_max":632,"o":"m 628 -3 q 629 -19 632 -10 q 618 -29 626 -29 l 467 -68 q 456 -71 461 -71 q 440 -51 442 -71 l 414 49 q 408 73 411 61 q 394 89 404 85 q 358 89 358 89 q 294 86 333 88 q 238 86 275 88 q 203 59 207 83 q 192 -11 200 35 q 185 -33 190 -19 q 172 -39 182 -36 q 8 -28 94 -36 q 6 -6 -1 -19 q 144 458 64 193 q 281 906 282 896 q 286 922 281 906 q 299 938 292 938 q 317 917 306 938 q 461 454 322 886 q 543 219 479 397 q 628 -3 617 14 m 349 247 q 356 264 358 250 q 349 289 351 276 l 307 435 q 297 446 301 446 q 290 435 294 446 l 257 289 q 251 250 249 254 q 257 247 253 247 l 349 247 z "},"b":{"ha":606,"x_min":3,"x_max":600,"o":"m 599 261 q 568 150 596 214 q 525 71 546 97 q 336 -42 467 -1 q 125 -79 206 -83 q 61 410 124 -67 q 6 888 3 857 q 249 947 161 947 q 281 944 267 947 q 388 901 351 931 q 444 800 428 868 q 453 729 453 763 q 413 578 453 674 q 455 558 415 578 q 501 532 494 538 q 582 411 572 478 q 594 362 588 404 q 600 286 600 319 q 599 261 600 269 m 303 765 q 247 811 290 811 q 174 785 217 811 l 206 596 q 271 649 238 601 q 304 746 304 697 q 303 765 304 756 m 388 369 q 321 424 372 424 q 232 392 283 424 l 271 164 q 349 228 310 171 q 389 346 389 286 q 388 369 389 358 z "},"c":{"ha":592,"x_min":-1,"x_max":636,"o":"m 635 897 q 569 706 636 840 q 560 696 565 696 q 535 712 553 696 q 506 730 518 728 q 479 732 493 732 q 331 638 410 732 q 246 497 286 583 q 199 325 200 396 q 238 182 199 235 q 296 142 268 142 l 296 139 q 351 131 326 131 q 453 175 411 131 q 504 254 468 192 q 514 261 510 261 q 522 256 519 261 q 524 249 524 251 q 578 117 531 239 q 581 79 588 93 q 442 -46 540 -4 q 296 -72 367 -76 q 178 -53 213 -67 q 71 39 125 -32 q -1 293 -1 135 q 26 483 -1 397 q 167 738 69 610 q 511 942 325 942 q 635 897 607 942 z "},"d":{"ha":594,"x_min":10,"x_max":579,"o":"m 576 525 q 532 258 579 357 q 426 82 486 156 q 82 -93 281 -94 q 49 438 88 -74 q 11 957 10 950 q 69 961 18 961 q 301 924 196 961 q 513 742 456 868 q 508 753 508 750 q 508 754 508 754 q 544 686 518 754 q 576 525 575 604 m 404 525 q 331 710 403 639 q 217 776 283 757 q 192 750 183 783 l 247 143 q 356 275 322 208 q 404 525 406 374 z "},"e":{"ha":465,"x_min":11,"x_max":472,"o":"m 472 646 q 454 624 472 628 q 238 621 439 625 q 222 618 226 621 q 214 601 218 615 q 213 515 213 596 q 213 429 211 436 q 239 400 214 400 l 385 401 q 410 385 410 401 q 411 265 411 325 q 400 251 411 251 l 221 246 q 197 218 197 244 q 194 53 196 218 q 201 28 194 32 q 235 24 208 25 l 438 18 q 446 11 443 18 q 442 -151 444 14 q 437 -168 443 -164 q 422 -172 431 -172 l 38 -168 q 11 -147 13 -168 q 28 826 19 336 q 33 838 28 836 l 456 846 q 468 826 468 843 l 472 646 z "},"f":{"ha":460,"x_min":0,"x_max":485,"o":"m 485 715 q 481 700 485 704 q 465 696 476 696 q 243 707 465 696 q 219 689 226 708 q 215 606 218 683 q 215 521 214 528 q 242 490 217 493 q 318 486 242 490 q 390 483 354 485 q 407 479 397 482 q 417 464 417 476 q 415 349 417 407 q 404 336 415 336 l 221 342 q 202 338 206 342 q 196 315 199 333 q 185 -47 193 171 q 169 -62 182 -64 l 28 -53 q 0 -31 3 -51 l 32 919 q 38 931 32 929 l 471 913 q 483 893 483 908 l 485 715 z "},"g":{"ha":679,"x_min":-1,"x_max":675,"o":"m 675 -33 q 665 -62 675 -58 q 610 -75 646 -65 q 375 -72 475 -94 q 106 103 190 -7 q -1 449 -1 242 q 64 731 -1 607 q 268 935 135 865 q 349 953 304 953 q 490 906 426 953 q 521 863 507 893 q 453 703 515 843 q 389 747 433 721 q 344 754 367 754 q 257 721 292 754 q 157 456 157 622 q 188 290 157 368 q 279 180 214 222 q 422 139 344 138 q 435 156 435 143 q 432 173 435 161 q 431 190 429 185 q 417 235 422 204 q 404 279 411 267 q 401 303 403 282 q 390 321 400 315 q 363 315 383 321 q 331 311 343 308 q 319 338 322 319 q 313 365 314 361 q 289 474 289 456 q 418 528 329 499 q 550 575 519 560 q 557 574 554 574 q 570 577 563 574 q 582 581 578 581 q 592 578 588 581 q 631 418 619 492 q 609 403 624 408 q 581 392 594 397 q 579 369 576 383 q 583 347 583 351 q 675 -33 614 221 z "},"h":{"ha":724,"x_min":4,"x_max":715,"o":"m 706 829 q 658 235 668 478 q 646 35 657 169 q 646 -65 644 1 l 629 -79 q 478 -65 618 -76 l 472 -56 q 475 150 475 49 q 472 356 475 251 q 451 371 465 368 q 425 375 438 374 q 351 379 390 379 q 278 375 314 379 q 272 344 271 364 q 275 311 275 314 q 308 -25 292 201 q 239 -51 303 -26 q 168 -68 197 -67 q 121 -83 143 -85 q 110 -49 110 -74 q 108 -15 111 -24 q 21 743 79 236 l 4 883 q 18 903 7 892 q 201 910 183 911 l 211 900 q 242 613 222 804 q 261 586 247 592 q 361 581 261 586 q 461 582 421 576 q 472 601 472 586 q 475 619 472 615 q 474 779 469 676 q 475 940 478 892 l 492 950 l 706 943 q 715 907 715 928 q 710 867 715 893 q 706 829 706 842 z "},"i":{"ha":360,"x_min":19,"x_max":360,"o":"m 353 843 q 319 635 336 739 q 296 422 301 511 q 285 353 286 397 q 279 281 282 294 q 242 -17 269 181 q 190 -31 226 -31 q 133 -33 144 -29 q 36 -43 101 -37 q 19 -29 29 -42 q 117 649 43 160 q 161 901 129 733 l 171 911 l 350 908 q 353 843 360 893 z "},"j":{"ha":621,"x_min":3,"x_max":610,"o":"m 610 838 q 574 458 592 647 q 517 28 547 201 q 458 -66 506 -32 q 340 -100 410 -100 q 253 -86 297 -100 q 121 -39 167 -60 q 11 19 99 -29 l 3 35 q 14 244 3 50 l 31 260 q 114 214 61 247 q 196 168 167 181 q 269 154 244 154 q 313 175 300 154 q 326 236 322 190 q 392 949 356 556 q 406 968 390 968 q 429 963 414 968 q 526 906 478 933 q 610 838 583 868 z "},"k":{"ha":597,"x_min":1,"x_max":625,"o":"m 622 857 q 451 440 546 663 q 464 394 449 410 q 543 172 508 358 q 576 -36 560 68 q 557 -71 582 -62 q 410 -89 507 -86 q 386 -64 388 -89 q 360 147 376 79 q 253 299 326 281 q 224 281 226 304 l 213 -42 q 215 -53 215 -47 q 179 -87 215 -75 q 83 -103 135 -101 q 17 -101 50 -101 l 1 -89 q 35 915 1 -67 q 64 929 36 921 q 126 922 78 922 q 190 924 197 924 q 210 919 199 919 q 224 894 221 919 l 224 517 q 256 522 235 504 q 411 899 265 539 q 446 929 424 929 q 461 928 453 929 q 582 890 500 914 q 608 883 585 888 q 625 869 625 881 q 622 857 625 864 z "},"l":{"ha":608,"x_min":-14,"x_max":597,"o":"m 597 189 q 542 -21 582 121 l 528 -35 q 278 -62 444 -40 q 25 -90 111 -85 q -14 -72 -10 -92 q 43 426 -10 106 q 132 865 90 717 q 228 892 167 886 q 333 903 314 899 q 371 888 371 906 q 368 876 371 882 q 249 157 272 390 q 585 210 386 181 l 597 189 z "},"m":{"ha":783,"x_min":-4,"x_max":763,"o":"m 761 -39 q 760 -75 756 -46 q 743 -100 763 -96 q 581 -128 664 -106 q 563 -110 563 -125 q 563 -12 563 -12 q 561 79 561 25 l 561 185 q 557 314 560 263 l 551 324 q 531 300 535 319 q 524 269 526 272 q 490 168 511 236 q 463 96 485 143 q 432 -18 454 49 q 396 -128 414 -72 l 389 -135 l 381 -125 q 251 226 339 -7 q 236 235 238 236 q 213 82 222 189 q 190 -74 204 -25 q 121 -76 164 -83 q 1 -64 79 -76 l -4 -54 q 75 333 18 78 q 84 396 71 357 q 96 456 97 435 q 112 517 106 474 q 126 578 118 560 q 149 688 136 614 q 182 836 163 736 q 192 871 189 843 q 210 897 194 893 q 231 826 221 871 q 246 754 244 761 q 315 485 269 664 q 342 367 328 425 q 381 272 364 272 q 397 294 392 279 q 407 324 403 310 q 471 494 428 382 q 508 583 488 522 q 674 956 563 708 q 694 956 692 964 q 761 -39 731 289 z "},"n":{"ha":594,"x_min":1,"x_max":640,"o":"m 638 936 q 635 908 640 924 q 625 878 631 892 q 469 319 579 708 q 429 181 460 272 q 353 -99 396 26 q 333 -83 338 -100 q 326 -57 331 -71 q 193 310 285 67 l 176 322 q 167 264 165 303 q 164 203 167 217 q 160 -79 164 -22 q 144 -94 158 -92 q 122 -99 124 -99 q 67 -108 108 -99 q 8 -112 32 -115 l 1 -86 q 40 813 13 215 l 47 939 q 66 930 63 943 q 72 904 69 917 q 108 825 88 879 q 278 469 165 707 q 293 429 285 450 q 319 404 301 408 l 326 414 q 417 865 354 565 q 429 907 417 897 q 638 936 528 936 z "},"o":{"ha":678,"x_min":-6,"x_max":671,"o":"m 615 736 q 671 485 671 626 q 578 128 671 290 q 497 6 569 97 q 399 -53 440 -42 q 350 -74 382 -68 q 299 -83 324 -79 q 153 -38 221 -85 q 51 81 86 8 q -6 349 -6 196 q 21 546 -6 450 q 242 886 85 782 q 357 911 294 911 q 507 863 446 911 q 615 736 550 835 m 453 586 q 367 642 410 642 q 299 614 340 642 q 200 288 194 513 q 310 135 225 147 q 429 236 372 135 q 479 458 479 357 q 453 586 479 531 z "},"p":{"ha":585,"x_min":1,"x_max":615,"o":"m 596 572 q 474 371 575 436 q 411 340 446 354 q 222 285 328 306 l 167 -60 q 150 -85 168 -75 q 81 -87 140 -89 q 28 -86 28 -86 q 1 -69 4 -83 q 83 776 40 276 q 100 904 89 819 l 117 914 q 301 879 210 896 q 517 785 443 844 q 596 572 615 703 m 394 642 q 346 690 381 674 q 317 697 335 690 q 292 703 300 703 q 274 697 282 703 l 247 500 q 389 565 326 499 q 394 642 411 604 z "},"q":{"ha":738,"x_min":-3,"x_max":733,"o":"m 733 49 q 582 -124 729 40 q 564 -133 568 -135 q 438 51 543 -106 q 399 31 425 39 q 357 15 361 17 q 319 13 339 13 q 99 132 183 13 q -3 490 -3 275 q 158 917 -3 771 q 306 961 224 961 q 411 935 365 961 q 532 832 456 914 q 629 499 629 699 q 588 256 629 369 l 583 239 q 733 49 649 163 m 431 335 q 450 485 450 415 q 400 668 450 597 q 336 707 371 700 q 253 669 301 714 q 194 476 194 593 q 208 349 194 421 q 333 222 253 222 q 431 335 392 232 z "},"r":{"ha":668,"x_min":25,"x_max":714,"o":"m 710 21 q 714 8 714 14 q 697 -6 714 -1 q 674 -15 676 -11 q 608 -42 651 -21 q 535 -67 564 -62 q 511 -40 521 -60 q 494 -8 496 -11 q 438 94 471 22 q 383 196 406 165 q 326 313 361 256 q 294 315 304 328 q 286 296 286 308 q 290 277 286 290 q 293 257 293 264 q 288 242 293 249 q 296 117 299 188 q 310 -50 297 61 q 287 -76 308 -72 q 243 -83 265 -81 q 176 -97 221 -85 q 147 -87 165 -99 q 38 769 108 260 q 25 900 36 775 l 39 913 q 159 919 78 913 q 281 925 240 925 q 383 917 338 925 q 396 919 389 919 q 416 915 403 919 q 436 911 429 911 q 449 914 443 911 q 563 828 519 888 q 613 692 607 769 q 515 456 622 556 q 501 425 501 436 q 508 410 501 415 q 528 375 519 400 q 544 342 538 350 q 592 254 556 315 q 636 164 624 200 q 710 21 661 117 m 408 625 q 399 701 424 668 q 338 739 378 729 q 300 740 331 738 q 265 729 276 742 l 274 604 q 271 565 271 546 q 283 528 271 542 q 408 625 360 542 z "},"s":{"ha":631,"x_min":7,"x_max":632,"o":"m 628 650 q 614 618 625 647 q 583 563 603 603 q 550 510 567 528 l 532 510 q 458 578 483 560 q 371 614 414 611 q 332 576 343 604 q 431 428 342 504 q 564 290 540 333 q 618 192 567 288 q 622 131 622 160 q 550 -69 622 6 q 339 -153 469 -153 q 208 -125 269 -153 q 25 17 83 -68 q 14 35 25 17 q 7 54 7 47 q 11 68 7 61 q 121 231 51 129 q 153 204 140 228 q 181 167 171 174 q 368 64 290 64 q 403 68 385 64 q 431 114 419 81 q 394 182 425 149 q 336 238 365 210 q 178 375 215 333 q 100 554 100 463 q 107 614 100 583 q 167 750 111 690 q 293 831 215 804 q 406 833 318 840 q 586 742 485 815 q 615 708 600 725 q 632 668 632 686 q 628 650 632 658 z "},"t":{"ha":740,"x_min":35,"x_max":711,"o":"m 711 725 q 618 707 681 710 q 521 697 544 703 q 486 667 488 689 q 436 -64 451 196 q 376 -81 419 -82 l 218 -75 q 210 -40 210 -61 q 213 -7 210 -33 q 214 29 215 15 q 244 515 222 190 l 256 639 q 229 663 246 663 q 47 643 169 654 q 35 672 35 654 q 38 697 35 679 q 39 725 40 715 l 50 853 q 175 885 74 875 q 700 939 349 906 l 711 924 l 711 725 z "},"u":{"ha":703,"x_min":0,"x_max":665,"o":"m 665 806 q 556 149 640 358 q 314 -92 475 -53 q 263 -97 289 -97 q 136 -64 196 -97 q 40 39 71 -26 q 0 258 0 125 q 44 604 0 394 q 119 926 82 765 q 144 956 139 956 l 304 935 q 321 907 326 932 q 247 611 289 808 q 201 315 206 403 q 215 199 199 251 q 275 128 235 138 q 404 264 365 129 q 435 475 414 297 q 461 807 458 679 q 474 826 461 821 l 639 833 q 665 806 664 835 z "},"v":{"ha":674,"x_min":8,"x_max":722,"o":"m 722 926 q 307 -67 692 867 q 294 -78 299 -78 q 283 -64 293 -78 q 151 358 278 -56 q 8 835 28 765 l 18 842 q 207 826 49 842 q 221 826 214 826 q 233 808 226 825 q 281 658 247 778 q 331 493 318 528 q 338 481 333 481 q 349 497 343 481 q 501 908 478 865 q 544 921 517 919 q 592 925 589 925 q 714 936 633 926 l 722 926 z "},"w":{"ha":981,"x_min":4,"x_max":1051,"o":"m 1051 960 q 871 394 1000 815 q 722 -89 735 -53 q 710 -112 714 -112 q 703 -101 707 -112 q 696 -86 699 -90 q 513 456 550 357 q 497 446 503 456 q 486 426 492 436 q 304 -93 469 379 q 292 -103 296 -103 q 281 -89 290 -103 q 147 335 275 -82 q 4 811 24 740 l 14 818 q 203 803 44 818 q 217 803 210 803 q 231 785 222 801 q 278 636 244 754 q 326 469 314 504 q 339 443 333 443 q 351 469 346 443 q 503 871 404 625 q 508 879 507 879 q 517 868 513 879 q 686 410 533 822 q 696 392 693 392 q 704 414 700 392 q 758 672 719 493 q 815 914 803 882 q 861 935 831 929 q 911 944 886 940 q 1042 971 956 951 l 1051 960 z "},"x":{"ha":681,"x_min":-6,"x_max":688,"o":"m 682 832 q 660 768 688 806 q 474 443 596 663 q 558 256 503 368 q 647 72 632 107 q 665 7 671 35 l 485 -51 l 472 -46 q 349 197 457 -19 q 346 203 349 200 q 218 -35 306 122 q 200 -37 210 -37 q 153 -24 185 -37 q 105 -8 121 -10 q 56 4 89 -6 q 6 18 22 14 q -6 39 -6 38 q 228 450 69 178 q 40 851 164 583 q 43 862 39 857 q 51 871 47 867 q 154 890 79 875 q 200 901 169 890 q 246 911 231 911 q 268 907 258 911 q 365 688 279 886 q 494 899 407 760 l 507 904 l 682 832 z "},"y":{"ha":692,"x_min":-1,"x_max":713,"o":"m 713 881 q 570 631 690 849 q 450 406 450 413 q 438 190 444 374 q 424 -29 431 7 q 414 -40 424 -39 l 222 -24 q 207 -7 204 -22 q 247 397 225 185 q 3 878 49 783 q 8 890 -1 888 q 179 899 81 893 q 224 885 210 901 q 344 618 304 690 q 354 608 349 608 q 363 618 360 608 q 490 890 467 857 q 592 892 506 896 q 704 889 692 888 l 713 881 z "},"z":{"ha":596,"x_min":-11,"x_max":589,"o":"m 579 -46 q 574 -72 581 -72 q 547 -58 578 -72 q 4 190 94 146 q -1 219 -11 197 q 242 693 40 321 q 253 718 253 713 q 235 724 253 722 l 51 708 q 26 710 31 707 q 21 726 22 713 q -3 881 7 781 q 15 897 -3 897 q 277 913 21 897 q 540 931 533 929 q 572 933 561 933 q 589 924 589 933 q 576 890 589 917 l 272 276 q 278 269 267 271 q 533 193 436 226 q 558 168 556 183 q 579 -46 574 78 z "},"{":{"ha":589,"x_min":-18,"x_max":606,"o":"m 606 774 q 579 763 597 760 q 489 769 533 767 q 397 768 435 774 q 350 769 386 775 q 360 306 353 589 q 354 240 353 282 q 357 172 357 181 q 354 79 354 96 q 450 72 386 76 q 560 60 488 71 l 564 51 l 571 -128 q 544 -139 563 -144 q 454 -132 538 -139 q 364 -133 400 -128 q 333 -131 353 -126 q 303 -133 310 -135 q 175 -133 261 -136 l 175 -131 q 168 -132 172 -131 q 160 -132 163 -132 q 143 -119 153 -131 q 143 313 143 -119 q 119 313 135 315 q 96 308 100 308 q 42 310 78 313 q -12 310 4 307 q -17 360 -18 325 q -14 414 -14 413 q -14 508 -14 414 q -7 526 -12 517 q 142 519 61 526 q 146 739 142 600 q 163 978 150 819 l 171 988 l 190 986 q 193 990 192 989 q 485 975 275 990 q 593 963 521 974 l 599 954 l 606 774 z "},"|":{"ha":242,"x_min":11,"x_max":232,"o":"m 225 836 q 219 783 225 818 q 213 607 219 728 q 206 431 206 493 q 200 174 206 350 q 196 -85 194 6 q 167 -97 188 -99 q 132 -94 133 -94 q 106 -86 113 -97 q 79 125 99 -17 q 74 222 74 158 q 36 588 60 307 l 13 875 q 17 893 11 885 q 33 897 22 901 q 207 867 92 886 q 225 836 232 867 z "},"}":{"ha":638,"x_min":4,"x_max":640,"o":"m 640 490 l 632 314 q 607 304 622 299 q 538 310 597 304 q 467 311 496 314 q 463 76 467 147 q 447 -162 460 -4 l 439 -171 l 418 -171 q 417 -174 418 -172 q 125 -160 360 -175 q 15 -146 89 -158 l 11 -137 l 4 42 q 31 53 13 58 q 121 46 38 53 q 211 47 175 42 q 260 47 222 42 q 250 510 258 228 q 254 575 257 533 q 253 643 253 632 q 256 736 256 693 q 160 743 224 739 q 50 756 124 746 l 46 764 l 38 944 q 65 956 46 958 q 156 949 110 951 q 246 950 208 944 q 276 946 257 943 q 307 950 307 950 q 433 949 350 953 q 435 946 435 949 q 442 948 438 947 q 450 949 447 949 q 467 935 458 947 q 467 518 467 935 q 546 511 493 515 q 638 499 578 510 l 640 490 z "},"~":{"ha":921,"x_min":6,"x_max":907,"o":"m 900 510 q 873 375 907 442 q 779 281 839 308 q 647 236 719 236 q 504 272 585 236 q 369 344 467 289 q 310 371 340 358 q 250 386 275 386 q 228 383 239 386 q 199 342 203 361 q 204 318 201 325 q 197 296 214 299 l 39 222 q 32 221 36 221 q 21 232 24 221 q 6 325 6 279 q 25 421 6 376 q 228 572 74 535 q 333 563 264 572 q 482 506 385 558 q 625 457 574 457 q 665 463 646 457 q 685 510 685 485 q 686 521 682 517 l 858 600 q 872 599 867 608 q 900 510 903 543 z "},"¢":{"ha":589,"x_min":10,"x_max":610,"o":"m 608 904 q 547 724 610 851 q 538 715 543 715 q 515 730 532 715 q 486 747 499 744 q 460 749 474 749 q 322 660 394 749 q 243 528 281 608 q 199 365 200 432 q 235 231 197 281 q 290 193 263 193 l 290 190 q 342 183 318 183 q 436 225 399 183 q 485 300 451 242 q 494 306 489 306 q 504 294 500 306 q 554 169 521 250 q 558 133 564 146 q 424 15 519 53 q 411 -93 421 -29 q 399 -158 410 -115 l 390 -161 l 211 -154 q 200 -137 194 -147 q 207 -82 200 -133 q 206 -26 211 -50 q 207 1 213 -19 q 79 96 140 17 q 10 339 10 186 q 36 514 10 436 q 168 753 76 633 q 282 868 222 824 q 296 1008 285 917 q 308 1074 299 1031 l 317 1076 l 497 1069 q 508 1053 511 1063 q 501 999 504 1026 q 501 944 496 967 q 608 904 585 942 z "},"£":{"ha":678,"x_min":-1,"x_max":747,"o":"m 747 906 l 647 767 q 510 867 569 867 q 442 824 467 867 q 406 724 433 807 q 374 589 390 679 l 553 590 l 535 451 l 351 451 q 306 185 333 364 q 347 164 321 164 q 393 173 361 164 q 439 182 425 182 q 541 203 475 186 q 642 224 607 221 l 654 203 q 599 -21 639 128 l 585 -35 q 333 -62 503 -40 q 82 -90 169 -85 q 43 -72 49 -92 q 103 451 50 132 l -1 451 l 19 586 l 128 586 q 189 865 167 792 q 257 1001 219 965 q 475 1064 322 1064 q 747 906 688 1064 z "},"•":{"ha":461,"x_min":-7,"x_max":442,"o":"m 407 361 q 238 256 343 265 q 17 375 96 256 q -7 496 -7 443 q 94 676 -7 604 q 217 713 167 713 q 354 675 285 713 q 442 503 442 608 q 407 361 442 438 z "},"ß":{"ha":606,"x_min":31,"x_max":600,"o":"m 599 261 q 525 71 592 140 q 351 0 483 28 l 329 114 q 388 369 390 283 q 278 486 385 456 l 269 576 q 304 744 304 683 q 303 765 304 756 q 243 785 269 785 q 188 693 186 785 l 206 596 l 300 -157 q 136 -175 217 -179 q 82 261 136 -164 q 33 688 31 657 q 113 876 31 799 q 261 946 183 946 q 380 907 331 946 q 444 800 429 868 q 453 729 453 763 q 413 578 453 674 q 455 558 415 578 q 501 532 494 538 q 582 411 572 478 q 594 362 588 404 q 600 286 600 319 q 599 261 600 269 z "},"´":{"ha":314,"x_min":-15,"x_max":290,"o":"m 290 1118 l 85 883 l -6 882 q -6 933 -15 899 l 115 1118 q 157 1126 128 1128 q 201 1126 192 1124 q 279 1129 226 1126 q 290 1118 290 1122 z "},"¨":{"ha":626,"x_min":149,"x_max":443,"o":"m 443 1047 q 426 1005 443 1022 q 383 988 408 988 q 341 1005 358 988 q 324 1047 324 1022 q 341 1089 324 1071 q 383 1107 358 1107 q 426 1089 408 1107 q 443 1047 443 1071 m 268 1047 q 251 1005 268 1022 q 208 988 233 988 q 166 1005 183 988 q 149 1047 149 1022 q 166 1089 149 1071 q 208 1107 183 1107 q 251 1089 233 1107 q 268 1047 268 1071 z "},"Ø":{"ha":678,"x_min":-6,"x_max":672,"o":"m 629 921 l 572 800 q 615 736 583 786 q 672 485 672 626 q 578 128 672 290 q 497 6 569 97 q 399 -53 440 -42 q 353 -74 382 -68 q 299 -83 325 -79 q 175 -51 235 -85 l 131 -147 l 49 -110 l 103 6 q -6 349 -6 122 q 21 546 -6 450 q 242 886 85 782 q 357 911 296 911 q 503 865 443 911 l 547 960 l 629 921 m 396 636 l 392 638 q 367 643 379 643 q 299 614 340 643 q 200 288 194 513 q 211 240 204 261 l 396 636 m 463 564 l 269 150 q 310 135 288 138 q 429 236 372 135 q 481 458 481 357 q 463 564 481 517 z "},"¥":{"ha":692,"x_min":-1,"x_max":713,"o":"m 713 881 q 453 414 671 822 l 596 417 l 583 310 l 443 310 q 439 233 442 281 l 571 239 l 571 143 l 436 143 q 424 -29 429 4 q 414 -40 424 -39 l 222 -24 q 207 -7 204 -22 q 224 143 214 42 l 107 143 l 90 218 l 231 224 l 238 310 l 119 310 l 119 404 l 242 408 q 3 878 47 786 q 8 890 -1 888 q 179 899 81 893 q 224 885 210 901 q 344 618 304 690 q 354 608 349 608 q 363 618 360 608 q 490 890 467 857 q 592 892 506 896 q 704 889 692 888 l 713 881 z "},"ø":{"ha":678,"x_min":-6,"x_max":672,"o":"m 629 921 l 572 800 q 615 736 583 786 q 672 485 672 626 q 578 128 672 290 q 497 6 569 97 q 399 -53 440 -42 q 353 -74 382 -68 q 299 -83 325 -79 q 175 -51 235 -85 l 131 -147 l 49 -110 l 103 6 q -6 349 -6 122 q 21 546 -6 450 q 242 886 85 782 q 357 911 296 911 q 503 865 443 911 l 547 960 l 629 921 m 396 636 l 392 638 q 367 643 379 643 q 299 614 340 643 q 200 288 194 513 q 211 240 204 261 l 396 636 m 463 564 l 269 150 q 310 135 288 138 q 429 236 372 135 q 481 458 481 357 q 463 564 481 517 z "},"¿":{"ha":531,"x_min":-4,"x_max":549,"o":"m 361 803 q 282 721 333 736 q 238 721 260 721 q 200 738 213 724 q 160 817 160 768 q 164 844 160 831 q 189 897 179 883 q 236 929 207 925 q 260 932 247 932 q 332 913 293 932 q 364 829 364 875 q 361 803 364 815 m 549 -64 q 476 -262 526 -132 l 464 -274 q 200 -276 317 -287 q 53 -219 110 -268 q -4 -103 -4 -171 q 0 -69 -4 -86 q 68 113 18 14 q 149 272 108 193 q 188 464 174 332 q 215 651 201 610 q 278 671 221 671 q 349 626 342 671 q 353 551 350 589 q 356 428 356 483 q 333 225 356 286 q 257 49 304 167 q 244 -6 244 13 q 351 -64 244 -51 q 445 -54 383 -64 q 539 -43 507 -44 l 549 -64 z "},"¡":{"ha":485,"x_min":-14,"x_max":519,"o":"m 517 976 q 438 896 490 908 q 356 913 371 896 q 317 990 317 940 q 319 1018 317 1004 q 344 1071 335 1057 q 392 1103 364 1099 q 418 1107 404 1107 q 488 1086 450 1107 q 519 1003 519 1051 q 517 976 519 990 m 417 819 q 375 597 403 746 q 350 496 371 563 q 272 114 338 400 l 204 -183 q 186 -204 200 -204 q 176 -200 181 -204 q 10 -114 122 -169 q 1 -76 -14 -104 q 13 -51 7 -68 q 24 -26 18 -33 q 150 328 68 90 q 325 847 211 500 q 342 854 332 854 q 367 846 350 854 q 392 836 385 838 q 410 831 404 833 q 417 819 415 828 z "},"–":{"ha":669,"x_min":-10,"x_max":643,"o":"m 643 549 l 621 357 q 561 346 599 340 q 479 353 506 347 q 393 350 464 356 q 332 354 371 357 q 265 350 278 350 q -1 350 175 347 q -10 382 -10 361 q -6 424 -10 393 q -4 464 -1 450 q -4 515 -4 481 q -3 567 -3 549 q 11 586 0 575 q 211 582 129 586 q 410 571 347 574 q 636 557 486 569 l 643 549 z "},"—":{"ha":1025,"x_min":-10,"x_max":1004,"o":"m 1004 544 l 982 353 q 922 342 958 336 q 728 349 886 343 q 501 353 581 353 q 393 350 435 353 q 332 354 371 357 q 265 350 278 350 q -1 350 175 347 q -10 382 -10 361 q -6 424 -10 393 q -4 464 -1 450 q -4 515 -4 481 q -3 567 -3 549 q 11 586 0 575 q 211 582 129 586 q 410 571 347 574 q 997 553 667 567 l 1004 544 z "},"“":{"ha":638,"x_min":54,"x_max":606,"o":"m 596 881 l 475 696 q 433 688 463 686 q 389 688 399 690 q 311 685 364 688 q 300 696 300 692 l 506 931 l 596 932 q 596 881 606 915 m 349 881 l 229 696 q 188 688 215 686 q 143 688 151 690 q 65 685 118 688 q 54 696 54 692 l 258 931 l 349 932 q 349 881 358 915 z "},"”":{"ha":638,"x_min":44,"x_max":596,"o":"m 596 921 l 390 686 l 300 685 q 300 736 290 701 l 421 921 q 463 929 435 931 q 507 929 497 926 q 585 932 532 929 q 596 921 596 925 m 349 921 l 144 686 l 54 685 q 54 736 44 701 l 174 921 q 215 929 188 931 q 260 929 250 926 q 338 932 285 929 q 349 921 349 925 z "},"‘":{"ha":372,"x_min":54,"x_max":358,"o":"m 349 881 l 229 696 q 188 688 215 686 q 143 688 151 690 q 65 685 118 688 q 54 696 54 692 l 258 931 l 349 932 q 349 881 358 915 z "},"’":{"ha":372,"x_min":44,"x_max":349,"o":"m 349 921 l 144 686 l 54 685 q 54 736 44 701 l 174 921 q 215 929 188 931 q 260 929 250 926 q 338 932 285 929 q 349 921 349 925 z "},"¤":{"ha":597,"x_min":-101,"x_max":636,"o":"m 635 897 q 569 706 636 840 q 558 696 565 696 q 535 712 553 696 q 506 730 518 728 q 478 732 493 732 q 331 638 408 732 q 289 578 311 614 l 468 571 l 440 507 l 247 499 q 213 410 225 451 l 426 410 l 381 310 l 199 307 q 240 178 201 226 q 296 142 269 142 l 296 139 q 351 131 325 131 q 453 175 411 131 q 504 254 467 192 q 514 261 510 261 q 522 254 518 261 q 524 249 522 251 q 578 117 529 239 q 581 79 588 93 q 442 -46 540 -4 q 296 -72 367 -76 q 178 -53 211 -67 q 71 39 125 -32 q -1 303 -4 138 l -101 301 l -97 410 l 8 410 q 26 483 15 450 l 29 490 l -97 486 l -85 592 l 67 586 q 167 738 100 651 q 510 942 325 942 q 635 897 607 942 z "},"·":{"ha":250,"x_min":15,"x_max":218,"o":"m 215 515 q 190 464 200 478 q 143 431 171 436 q 47 449 97 421 q 15 532 15 483 q 18 558 15 544 q 97 639 44 626 q 142 639 119 639 q 179 622 167 636 q 218 543 218 593 q 215 515 218 529 z "},"‚":{"ha":372,"x_min":44,"x_max":349,"o":"m 349 125 l 144 -110 l 54 -111 q 54 -60 44 -96 l 174 125 q 215 133 188 135 q 260 133 250 131 q 338 136 285 133 q 349 125 349 129 z "},"„":{"ha":633,"x_min":44,"x_max":583,"o":"m 583 125 l 379 -110 l 289 -111 q 289 -60 279 -96 l 408 125 q 450 133 422 135 q 494 133 486 131 q 572 136 519 133 q 583 125 583 129 m 349 125 l 144 -110 l 54 -111 q 54 -60 44 -96 l 174 125 q 215 133 188 135 q 260 133 250 131 q 338 136 285 133 q 349 125 349 129 z "},"‰":{"ha":1244,"x_min":29,"x_max":1204,"o":"m 1175 306 q 1204 182 1204 253 q 1157 1 1204 85 q 1117 -60 1153 -14 q 1067 -89 1090 -82 q 1018 -104 1064 -92 q 893 -22 935 -107 q 865 111 865 35 q 878 211 865 163 q 989 381 910 328 q 1049 393 1017 393 q 1121 369 1093 393 q 1175 306 1150 351 m 739 781 q 708 735 731 765 q 525 406 644 626 q 269 -78 438 246 q 256 -82 263 -82 q 231 -71 246 -82 q 204 -56 211 -58 q 182 -35 183 -50 q 260 176 210 35 q 301 272 271 211 q 442 636 325 350 l 557 919 q 576 936 564 936 q 588 932 582 936 q 736 818 636 893 q 747 800 747 813 q 739 781 747 789 m 339 826 q 367 700 367 771 q 319 522 367 603 q 279 461 317 508 q 231 432 253 438 q 181 417 226 428 q 57 499 97 414 q 29 633 29 557 q 42 731 29 683 q 151 901 75 850 q 208 914 178 914 q 285 889 254 914 q 339 826 306 876 m 804 306 q 833 182 833 253 q 786 1 833 85 q 746 -60 782 -14 q 696 -89 719 -82 q 647 -104 693 -92 q 522 -22 564 -107 q 494 111 494 35 q 507 211 494 163 q 618 381 538 328 q 676 393 644 393 q 750 369 721 393 q 804 306 779 351 m 1094 231 q 1064 257 1082 249 q 1018 244 1043 264 q 968 81 965 193 q 1022 6 982 13 q 1082 56 1054 6 q 1108 167 1108 115 q 1094 231 1108 203 m 257 751 q 226 776 246 769 q 181 765 208 783 q 132 601 126 714 q 186 525 144 531 q 246 576 217 525 q 271 688 271 638 q 257 751 271 724 m 724 231 q 693 257 710 249 q 647 244 672 264 q 597 81 594 193 q 651 6 610 13 q 711 56 683 6 q 738 167 738 115 q 724 231 738 203 z "},"ı":{"ha":360,"x_min":19,"x_max":360,"o":"m 353 843 q 319 635 336 739 q 296 422 301 511 q 285 353 286 397 q 279 281 282 294 q 242 -17 269 181 q 190 -31 226 -31 q 133 -33 144 -29 q 36 -43 101 -37 q 19 -29 29 -42 q 117 649 43 160 q 161 901 129 733 l 171 911 l 350 908 q 353 843 360 893 z "},"ˆ":{"ha":626,"x_min":149,"x_max":440,"o":"m 440 958 l 436 957 q 357 961 413 957 q 346 965 354 960 q 307 1051 332 997 q 299 1050 303 1058 q 240 964 278 1010 q 203 960 240 964 q 153 957 186 958 l 149 958 q 315 1201 161 975 q 326 1201 321 1206 q 380 1088 328 1200 q 440 958 432 976 z "},"˜":{"ha":388,"x_min":42,"x_max":349,"o":"m 343 1160 q 303 1050 349 1081 q 260 1029 283 1029 q 167 1081 231 1029 q 121 1100 131 1103 q 111 1079 113 1089 q 113 1068 111 1071 q 110 1057 115 1058 l 58 1022 q 51 1026 54 1019 q 53 1118 42 1076 q 121 1190 69 1172 q 156 1186 132 1190 q 203 1159 172 1183 q 251 1135 235 1135 q 265 1138 258 1135 q 272 1160 272 1149 q 272 1165 271 1164 l 329 1204 q 333 1203 332 1207 q 343 1160 344 1176 z "},"¯":{"ha":421,"x_min":31,"x_max":393,"o":"m 393 1128 l 381 1022 q 347 1015 368 1013 q 303 1019 317 1017 q 256 1018 294 1021 q 221 1019 243 1022 q 185 1018 192 1018 q 38 1018 135 1017 q 35 1049 32 1026 q 37 1083 38 1075 q 38 1108 36 1090 q 38 1138 38 1128 q 44 1149 39 1142 q 264 1140 31 1149 q 389 1132 307 1139 l 393 1128 z "},"˘":{"ha":349,"x_min":26,"x_max":329,"o":"m 329 1147 q 281 1032 319 1078 q 168 981 236 981 q 49 1078 79 981 q 26 1165 26 1149 q 29 1183 26 1175 q 117 1190 32 1190 q 128 1132 117 1163 q 165 1089 142 1089 q 247 1193 247 1089 q 329 1185 246 1193 l 329 1147 z "},"˙":{"ha":250,"x_min":24,"x_max":228,"o":"m 224 1039 q 199 988 208 1000 q 151 954 179 960 q 56 972 106 944 q 24 1054 24 1007 q 26 1082 24 1068 q 106 1163 54 1149 q 151 1161 128 1163 q 188 1146 175 1160 q 228 1067 228 1117 q 224 1039 228 1053 z "},"˚":{"ha":364,"x_min":75,"x_max":311,"o":"m 311 1036 q 276 953 311 988 q 193 918 242 918 q 110 953 144 918 q 75 1036 75 988 q 110 1119 75 1085 q 193 1154 144 1154 q 276 1119 242 1154 q 311 1036 311 1085 m 231 1046 q 192 1086 231 1086 q 151 1046 151 1086 q 192 1006 151 1006 q 231 1046 231 1006 z "},"¸":{"ha":592,"x_min":83,"x_max":472,"o":"m 472 -275 q 401 -389 472 -344 q 269 -428 340 -428 q 156 -401 215 -428 q 83 -321 83 -368 q 140 -279 83 -310 q 172 -319 146 -300 q 219 -339 199 -339 q 245 -323 232 -339 q 258 -294 258 -307 q 183 -215 258 -250 q 204 -172 190 -201 q 238 -83 221 -128 q 276 -17 264 -17 q 332 -15 294 -17 q 324 -85 332 -40 q 311 -151 313 -137 q 472 -275 472 -183 z "},"˝":{"ha":638,"x_min":33,"x_max":585,"o":"m 585 1186 l 381 951 l 290 950 q 290 1001 281 965 l 410 1186 q 451 1194 424 1196 q 496 1194 488 1192 q 574 1197 521 1194 q 585 1186 585 1189 m 339 1186 l 133 951 l 43 950 q 43 1001 33 965 l 164 1186 q 204 1194 176 1196 q 250 1194 240 1192 q 328 1197 275 1194 q 339 1186 339 1189 z "},"˛":{"ha":604,"x_min":42,"x_max":564,"o":"m 564 -256 q 463 -317 513 -286 q 333 -350 401 -350 q 42 -226 42 -350 q 83 -68 42 -161 l 115 -24 q 151 -26 128 -21 q 199 -32 175 -32 q 183 -106 183 -51 q 196 -175 183 -149 q 271 -211 204 -193 q 361 -225 328 -225 q 507 -187 447 -225 q 564 -256 528 -208 z "},"ˇ":{"ha":626,"x_min":149,"x_max":440,"o":"m 440 1200 q 272 957 428 1183 q 263 957 268 953 q 208 1070 260 958 q 149 1200 156 1182 l 153 1201 q 231 1197 176 1201 q 242 1193 235 1199 q 282 1107 256 1161 q 290 1108 285 1100 q 349 1194 311 1149 q 386 1199 349 1194 q 436 1201 403 1200 l 440 1200 z "},"Ł":{"ha":581,"x_min":-69,"x_max":606,"o":"m 606 203 q 550 -21 590 128 l 536 -35 q 286 -62 453 -40 q 33 -90 119 -85 q -6 -72 -1 -92 q 43 406 1 153 l -69 411 l -58 517 l 63 510 q 140 865 92 664 q 243 899 176 888 q 356 917 300 907 q 393 901 393 919 q 390 890 393 896 q 339 658 378 811 q 325 578 338 628 q 307 497 311 519 l 499 486 l 488 382 l 292 392 q 257 185 278 324 q 297 164 272 164 q 344 173 313 164 q 390 182 376 182 q 492 203 426 186 q 593 224 558 221 l 606 203 z "},"ł":{"ha":581,"x_min":-69,"x_max":606,"o":"m 606 203 q 550 -21 590 128 l 536 -35 q 286 -62 453 -40 q 33 -90 119 -85 q -6 -72 -1 -92 q 43 406 1 153 l -69 411 l -58 517 l 63 510 q 140 865 92 664 q 243 899 176 888 q 356 917 300 907 q 393 901 393 919 q 390 890 393 896 q 339 658 378 811 q 325 578 338 628 q 307 497 311 519 l 499 486 l 488 382 l 292 392 q 257 185 278 324 q 297 164 272 164 q 344 173 313 164 q 390 182 376 182 q 492 203 426 186 q 593 224 558 221 l 606 203 z "},"Š":{"ha":638,"x_min":7,"x_max":632,"o":"m 628 761 q 614 729 625 758 q 583 674 603 714 q 550 621 567 639 l 532 621 q 458 689 483 671 q 371 725 414 722 q 332 688 343 715 q 431 539 342 615 q 564 401 540 444 q 618 303 567 399 q 622 242 622 271 q 550 42 622 117 q 339 -42 469 -42 q 208 -14 269 -42 q 25 128 83 43 q 14 146 25 128 q 7 165 7 158 q 11 179 7 172 q 121 342 51 240 q 153 315 140 339 q 181 278 171 285 q 368 175 290 175 q 403 179 385 175 q 431 225 419 192 q 394 293 425 260 q 336 349 365 321 q 178 486 215 444 q 100 665 100 574 q 107 725 100 694 q 167 861 111 801 q 293 942 215 915 q 406 944 318 951 q 586 853 485 926 q 615 819 600 836 q 632 779 632 797 q 628 761 632 769 m 539 1236 q 371 993 525 1219 q 361 994 367 989 q 306 1108 358 996 q 247 1236 254 1219 l 251 1239 q 329 1235 275 1239 q 340 1229 333 1235 q 381 1144 354 1197 q 389 1146 383 1136 q 447 1232 410 1185 q 485 1236 447 1232 q 535 1239 501 1236 l 539 1236 z "},"™":{"ha":824,"x_min":7,"x_max":806,"o":"m 806 447 q 804 426 803 443 q 794 413 806 415 q 700 396 746 408 q 689 407 692 399 q 689 464 689 464 q 686 653 690 528 l 682 658 q 671 644 674 656 q 667 626 668 629 q 647 568 660 608 q 631 525 644 553 q 592 396 628 508 l 589 392 l 583 397 q 508 601 560 467 q 500 607 503 608 q 487 517 492 579 q 474 428 482 456 q 432 426 460 422 q 364 433 408 426 l 360 439 q 406 664 372 515 q 410 701 403 678 q 418 735 418 724 q 427 771 424 746 q 436 806 431 796 q 443 838 438 817 q 449 869 449 858 q 468 957 457 899 q 474 975 472 961 q 483 992 475 989 q 506 908 488 983 q 546 753 519 857 q 576 631 556 711 q 583 628 579 631 q 598 660 585 629 q 636 758 611 692 q 657 810 646 775 q 753 1025 689 882 q 765 1025 763 1032 q 806 447 776 832 m 401 883 q 347 874 383 875 q 290 868 304 871 q 271 850 272 861 q 242 425 261 710 q 207 417 231 414 l 115 418 q 111 449 108 429 q 113 479 114 474 q 131 763 117 574 l 138 835 q 121 847 129 847 q 15 836 86 843 q 8 858 7 843 q 10 883 10 881 l 17 958 q 90 976 29 969 q 394 1008 192 989 l 401 999 l 401 883 z "},"š":{"ha":638,"x_min":7,"x_max":632,"o":"m 628 761 q 614 729 625 758 q 583 674 603 714 q 550 621 567 639 l 532 621 q 458 689 483 671 q 371 725 414 722 q 332 688 343 715 q 431 539 342 615 q 564 401 540 444 q 618 303 567 399 q 622 242 622 271 q 550 42 622 117 q 339 -42 469 -42 q 208 -14 269 -42 q 25 128 83 43 q 14 146 25 128 q 7 165 7 158 q 11 179 7 172 q 121 342 51 240 q 153 315 140 339 q 181 278 171 285 q 368 175 290 175 q 403 179 385 175 q 431 225 419 192 q 394 293 425 260 q 336 349 365 321 q 178 486 215 444 q 100 665 100 574 q 107 725 100 694 q 167 861 111 801 q 293 942 215 915 q 406 944 318 951 q 586 853 485 926 q 615 819 600 836 q 632 779 632 797 q 628 761 632 769 m 539 1236 q 371 993 525 1219 q 361 994 367 989 q 306 1108 358 996 q 247 1236 254 1219 l 251 1239 q 329 1235 275 1239 q 340 1229 333 1235 q 381 1144 354 1197 q 389 1146 383 1136 q 447 1232 410 1185 q 485 1236 447 1232 q 535 1239 501 1236 l 539 1236 z "},"Ÿ":{"ha":692,"x_min":-1,"x_max":713,"o":"m 713 881 q 570 631 690 849 q 450 406 450 413 q 438 190 444 374 q 424 -29 431 7 q 414 -40 424 -39 l 222 -24 q 207 -7 204 -22 q 247 397 225 185 q 3 878 49 783 q 8 890 -1 888 q 179 899 81 893 q 224 885 210 901 q 344 618 304 690 q 354 608 349 608 q 363 618 360 608 q 490 890 467 857 q 592 892 506 896 q 704 889 692 888 l 713 881 m 514 1022 q 496 980 514 997 q 454 963 478 963 q 412 980 429 963 q 394 1022 394 997 q 412 1064 394 1046 q 454 1082 429 1082 q 496 1064 478 1082 q 514 1022 514 1046 m 339 1022 q 322 980 339 997 q 279 963 304 963 q 237 980 254 963 q 219 1022 219 997 q 237 1064 219 1046 q 279 1082 254 1082 q 322 1064 304 1082 q 339 1022 339 1046 z "},"©":{"ha":647,"x_min":-8,"x_max":639,"o":"m 585 847 q 639 607 639 743 q 549 265 639 422 q 471 149 539 233 q 378 93 415 104 q 332 74 363 79 q 283 64 285 64 q 143 108 210 63 q 46 219 79 150 q -8 475 -8 329 q 17 665 -8 574 q 228 989 78 889 q 339 1014 279 1014 q 482 968 422 1014 q 585 847 526 935 m 482 797 q 361 875 425 875 q 264 835 325 875 q 124 371 114 686 q 279 154 158 174 q 447 299 382 156 q 521 611 521 460 q 482 797 521 717 m 464 725 q 433 636 465 699 q 429 632 432 632 q 418 640 426 632 q 404 648 410 647 q 392 649 399 649 q 324 606 361 649 q 285 540 303 582 q 263 461 263 493 q 281 396 263 419 q 308 376 294 376 q 350 393 332 385 q 403 429 394 414 q 413 426 408 435 q 438 365 421 406 q 439 349 442 356 q 375 292 421 310 q 308 279 342 278 q 253 288 268 282 q 204 329 229 297 q 171 449 171 374 q 183 535 171 496 q 249 651 203 590 q 393 744 314 738 q 464 725 450 750 z "},"­":{"ha":878,"x_min":-10,"x_max":853,"o":"m 853 547 l 831 356 q 771 344 807 339 q 583 351 758 344 q 393 350 471 356 q 332 354 371 357 q 265 350 278 350 q -1 350 175 347 q -10 382 -10 361 q -6 424 -10 393 q -4 464 -1 450 q -4 515 -4 481 q -3 567 -3 549 q 11 586 0 575 q 619 569 143 586 q 846 556 696 568 l 853 547 z "},"®":{"ha":668,"x_min":10,"x_max":661,"o":"m 607 832 q 661 590 661 728 q 571 246 661 403 q 493 128 561 211 q 397 71 440 82 q 355 51 382 57 q 303 42 328 46 q 163 85 228 40 q 64 200 99 131 q 10 456 10 310 q 35 649 10 554 q 247 975 96 876 q 361 1000 300 1000 q 503 953 446 1000 q 607 832 547 925 m 401 568 q 398 602 408 588 q 368 621 388 617 q 335 615 356 624 l 339 558 q 343 522 335 531 q 401 568 379 531 m 503 781 q 382 860 447 860 q 283 819 342 860 q 142 351 132 671 q 299 133 179 153 q 454 251 382 133 q 422 310 440 269 q 389 368 403 351 q 363 422 378 400 q 349 424 354 431 q 346 406 343 418 q 344 390 349 394 q 351 334 351 361 q 356 254 350 307 q 344 242 356 244 q 325 238 325 238 q 293 232 314 239 q 279 238 288 232 q 224 694 257 390 l 229 701 q 310 706 236 701 q 389 703 358 708 q 404 703 394 706 q 419 701 414 700 q 496 599 489 678 q 451 489 500 538 q 447 468 440 475 q 465 435 453 457 q 501 367 478 414 q 542 599 542 492 q 503 781 542 701 z "},"À":{"ha":626,"x_min":-1,"x_max":632,"o":"m 628 -3 q 629 -19 632 -10 q 618 -29 626 -29 l 467 -68 q 456 -71 461 -71 q 440 -51 442 -71 l 414 49 q 408 73 411 61 q 394 89 404 85 q 358 89 358 89 q 294 86 333 88 q 238 86 275 88 q 203 59 207 83 q 192 -11 200 35 q 185 -33 190 -19 q 172 -39 182 -36 q 8 -28 94 -36 q 6 -6 -1 -19 q 144 458 64 193 q 281 906 282 896 q 286 922 281 906 q 299 938 292 938 q 317 917 306 938 q 461 454 322 886 q 543 219 479 397 q 628 -3 617 14 m 349 247 q 356 264 358 250 q 349 289 351 276 l 307 435 q 297 446 301 446 q 290 435 294 446 l 257 289 q 251 250 249 254 q 257 247 253 247 l 349 247 m 388 963 l 297 964 l 289 971 l 93 1199 q 104 1210 93 1203 q 182 1207 157 1207 q 226 1207 192 1204 q 268 1199 254 1210 l 388 1014 q 388 963 397 979 z "},"Á":{"ha":626,"x_min":-1,"x_max":632,"o":"m 628 -3 q 629 -19 632 -10 q 618 -29 626 -29 l 467 -68 q 456 -71 461 -71 q 440 -51 442 -71 l 414 49 q 408 73 411 61 q 394 89 404 85 q 358 89 358 89 q 294 86 333 88 q 238 86 275 88 q 203 59 207 83 q 192 -11 200 35 q 185 -33 190 -19 q 172 -39 182 -36 q 8 -28 94 -36 q 6 -6 -1 -19 q 144 458 64 193 q 281 906 282 896 q 286 922 281 906 q 299 938 292 938 q 317 917 306 938 q 461 454 322 886 q 543 219 479 397 q 628 -3 617 14 m 349 247 q 356 264 358 250 q 349 289 351 276 l 307 435 q 297 446 301 446 q 290 435 294 446 l 257 289 q 251 250 249 254 q 257 247 253 247 l 349 247 m 529 1203 l 324 968 l 233 967 q 233 1018 224 983 l 354 1203 q 396 1211 367 1214 q 440 1211 431 1210 q 518 1214 465 1211 q 529 1203 529 1207 z "},"Â":{"ha":626,"x_min":-1,"x_max":632,"o":"m 628 -3 q 629 -19 632 -10 q 618 -29 626 -29 l 467 -68 q 456 -71 461 -71 q 440 -51 442 -71 l 414 49 q 408 73 411 61 q 394 89 404 85 q 358 89 358 89 q 294 86 333 88 q 238 86 275 88 q 203 59 207 83 q 192 -11 200 35 q 185 -33 190 -19 q 172 -39 182 -36 q 8 -28 94 -36 q 6 -6 -1 -19 q 144 458 64 193 q 281 906 282 896 q 286 922 281 906 q 299 938 292 938 q 317 917 306 938 q 461 454 322 886 q 543 219 479 397 q 628 -3 617 14 m 349 247 q 356 264 358 250 q 349 289 351 276 l 307 435 q 297 446 301 446 q 290 435 294 446 l 257 289 q 251 250 249 254 q 257 247 253 247 l 349 247 m 440 958 l 436 957 q 357 961 413 957 q 346 965 354 960 q 307 1051 332 997 q 299 1050 303 1058 q 240 964 278 1010 q 203 960 240 964 q 153 957 186 958 l 149 958 q 315 1201 161 975 q 326 1201 321 1206 q 380 1088 328 1200 q 440 958 432 976 z "},"Ã":{"ha":626,"x_min":-1,"x_max":632,"o":"m 628 -3 q 629 -19 632 -10 q 618 -29 626 -29 l 467 -68 q 456 -71 461 -71 q 440 -51 442 -71 l 414 49 q 408 73 411 61 q 394 89 404 85 q 358 89 358 89 q 294 86 333 88 q 238 86 275 88 q 203 59 207 83 q 192 -11 200 35 q 185 -33 190 -19 q 172 -39 182 -36 q 8 -28 94 -36 q 6 -6 -1 -19 q 144 458 64 193 q 281 906 282 896 q 286 922 281 906 q 299 938 292 938 q 317 917 306 938 q 461 454 322 886 q 543 219 479 397 q 628 -3 617 14 m 349 247 q 356 264 358 250 q 349 289 351 276 l 307 435 q 297 446 301 446 q 290 435 294 446 l 257 289 q 251 250 249 254 q 257 247 253 247 l 349 247 m 463 1114 q 422 1003 468 1035 q 379 982 403 982 q 286 1033 350 982 q 240 1053 250 1056 q 231 1032 232 1042 q 232 1021 231 1025 q 229 1011 235 1011 l 178 975 q 171 979 172 972 q 172 1071 160 1029 q 240 1143 189 1125 q 275 1139 251 1143 q 323 1112 292 1136 q 371 1088 354 1088 q 385 1090 378 1088 q 392 1114 392 1101 q 392 1119 390 1117 l 449 1157 q 453 1156 451 1161 q 463 1114 464 1129 z "},"Ä":{"ha":626,"x_min":-1,"x_max":632,"o":"m 628 -3 q 629 -19 632 -10 q 618 -29 626 -29 l 467 -68 q 456 -71 461 -71 q 440 -51 442 -71 l 414 49 q 408 73 411 61 q 394 89 404 85 q 358 89 358 89 q 294 86 333 88 q 238 86 275 88 q 203 59 207 83 q 192 -11 200 35 q 185 -33 190 -19 q 172 -39 182 -36 q 8 -28 94 -36 q 6 -6 -1 -19 q 144 458 64 193 q 281 906 282 896 q 286 922 281 906 q 299 938 292 938 q 317 917 306 938 q 461 454 322 886 q 543 219 479 397 q 628 -3 617 14 m 349 247 q 356 264 358 250 q 349 289 351 276 l 307 435 q 297 446 301 446 q 290 435 294 446 l 257 289 q 251 250 249 254 q 257 247 253 247 l 349 247 m 443 1047 q 426 1005 443 1022 q 383 988 408 988 q 341 1005 358 988 q 324 1047 324 1022 q 341 1089 324 1071 q 383 1107 358 1107 q 426 1089 408 1107 q 443 1047 443 1071 m 268 1047 q 251 1005 268 1022 q 208 988 233 988 q 166 1005 183 988 q 149 1047 149 1022 q 166 1089 149 1071 q 208 1107 183 1107 q 251 1089 233 1107 q 268 1047 268 1071 z "},"Å":{"ha":626,"x_min":-1,"x_max":632,"o":"m 628 -3 q 629 -19 632 -10 q 618 -29 626 -29 l 467 -68 q 456 -71 461 -71 q 440 -51 442 -71 l 414 49 q 408 73 411 61 q 394 89 404 85 q 358 89 358 89 q 294 86 333 88 q 238 86 275 88 q 203 59 207 83 q 192 -11 200 35 q 185 -33 190 -19 q 172 -39 182 -36 q 8 -28 94 -36 q 6 -6 -1 -19 q 144 458 64 193 q 281 906 282 896 q 286 922 281 906 q 299 938 292 938 q 317 917 306 938 q 461 454 322 886 q 543 219 479 397 q 628 -3 617 14 m 349 247 q 356 264 358 250 q 349 289 351 276 l 307 435 q 297 446 301 446 q 290 435 294 446 l 257 289 q 251 250 249 254 q 257 247 253 247 l 349 247 m 422 1083 q 388 999 422 1033 q 304 965 353 965 q 221 999 256 965 q 186 1083 186 1033 q 221 1167 186 1132 q 304 1201 256 1201 q 388 1167 353 1201 q 422 1083 422 1132 m 342 1093 q 301 1133 342 1133 q 263 1093 263 1133 q 301 1053 263 1053 q 342 1093 342 1053 z "},"Ç":{"ha":592,"x_min":-1,"x_max":636,"o":"m 635 897 q 569 706 636 840 q 558 696 565 696 q 535 712 553 696 q 506 730 518 728 q 478 732 493 732 q 331 638 408 732 q 246 497 286 583 q 199 325 200 396 q 238 182 197 235 q 296 142 267 142 l 296 139 q 351 131 325 131 q 453 175 411 131 q 504 254 467 192 q 514 261 510 261 q 522 254 518 261 q 524 249 522 251 q 578 117 529 239 q 581 79 588 93 q 463 -36 544 4 q 325 -72 399 -68 q 311 -151 319 -100 q 472 -275 472 -183 q 401 -389 472 -344 q 269 -428 340 -428 q 156 -401 215 -428 q 83 -321 83 -368 q 140 -279 83 -310 q 172 -319 146 -300 q 219 -339 199 -339 q 245 -323 232 -339 q 258 -294 258 -307 q 183 -215 258 -250 q 203 -170 190 -201 q 243 -68 215 -139 q 157 -43 192 -62 q 71 39 115 -19 q -1 293 -1 135 q 26 483 -1 397 q 167 738 68 610 q 510 942 325 942 q 635 897 607 942 z "},"È":{"ha":465,"x_min":11,"x_max":472,"o":"m 472 646 q 454 624 472 628 q 238 621 439 625 q 222 618 226 621 q 214 601 218 615 q 213 515 213 596 q 213 429 211 436 q 239 400 214 400 l 385 401 q 410 385 410 401 q 411 265 411 325 q 400 251 411 251 l 221 246 q 197 218 197 244 q 194 53 196 218 q 201 28 194 32 q 235 24 208 25 l 438 18 q 446 11 443 18 q 442 -151 444 14 q 437 -168 443 -164 q 422 -172 431 -172 l 38 -168 q 11 -147 13 -168 q 28 826 19 336 q 33 838 28 836 l 456 846 q 468 826 468 843 l 472 646 m 332 882 l 242 883 l 233 890 l 36 1118 q 47 1129 36 1122 q 125 1126 100 1126 q 169 1126 135 1124 q 211 1118 199 1128 l 332 933 q 332 882 342 899 z "},"É":{"ha":465,"x_min":11,"x_max":472,"o":"m 472 646 q 454 624 472 628 q 238 621 439 625 q 222 618 226 621 q 214 601 218 615 q 213 515 213 596 q 213 429 211 436 q 239 400 214 400 l 385 401 q 410 385 410 401 q 411 265 411 325 q 400 251 411 251 l 221 246 q 197 218 197 244 q 194 53 196 218 q 201 28 194 32 q 235 24 208 25 l 438 18 q 446 11 443 18 q 442 -151 444 14 q 437 -168 443 -164 q 422 -172 431 -172 l 38 -168 q 11 -147 13 -168 q 28 826 19 336 q 33 838 28 836 l 456 846 q 468 826 468 843 l 472 646 m 461 1118 l 256 883 l 165 882 q 165 933 157 899 l 286 1118 q 328 1126 300 1128 q 372 1126 363 1124 q 450 1129 397 1126 q 461 1118 461 1122 z "},"Ê":{"ha":465,"x_min":11,"x_max":472,"o":"m 472 646 q 454 624 472 628 q 238 621 439 625 q 222 618 226 621 q 214 601 218 615 q 213 515 213 596 q 213 429 211 436 q 239 400 214 400 l 385 401 q 410 385 410 401 q 411 265 411 325 q 400 251 411 251 l 221 246 q 197 218 197 244 q 194 53 196 218 q 201 28 194 32 q 235 24 208 25 l 438 18 q 446 11 443 18 q 442 -151 444 14 q 437 -168 443 -164 q 422 -172 431 -172 l 38 -168 q 11 -147 13 -168 q 28 826 19 336 q 33 838 28 836 l 456 846 q 468 826 468 843 l 472 646 m 389 922 l 385 919 q 307 924 361 919 q 296 929 304 924 q 256 1014 282 961 q 247 1013 253 1022 q 190 926 226 974 q 151 922 189 926 q 101 919 135 922 l 99 922 q 265 1165 111 938 q 274 1166 269 1169 q 330 1051 278 1163 q 389 922 382 939 z "},"Ë":{"ha":465,"x_min":11,"x_max":472,"o":"m 472 646 q 454 624 472 628 q 238 621 439 625 q 222 618 226 621 q 214 601 218 615 q 213 515 213 596 q 213 429 211 436 q 239 400 214 400 l 385 401 q 410 385 410 401 q 411 265 411 325 q 400 251 411 251 l 221 246 q 197 218 197 244 q 194 53 196 218 q 201 28 194 32 q 235 24 208 25 l 438 18 q 446 11 443 18 q 442 -151 444 14 q 437 -168 443 -164 q 422 -172 431 -172 l 38 -168 q 11 -147 13 -168 q 28 826 19 336 q 33 838 28 836 l 456 846 q 468 826 468 843 l 472 646 m 396 972 q 378 931 396 949 q 338 913 361 913 q 295 931 313 913 q 278 972 278 949 q 295 1015 278 997 q 338 1032 313 1032 q 378 1015 361 1032 q 396 972 396 997 m 222 972 q 205 931 222 949 q 163 913 188 913 q 120 931 138 913 q 103 972 103 949 q 120 1015 103 997 q 163 1032 138 1032 q 205 1015 188 1032 q 222 972 222 997 z "},"Ì":{"ha":360,"x_min":19,"x_max":360,"o":"m 353 843 q 319 635 336 739 q 296 422 301 511 q 285 353 286 397 q 279 281 282 294 q 242 -17 269 181 q 190 -31 226 -31 q 133 -33 144 -29 q 36 -43 101 -37 q 19 -29 29 -42 q 117 649 43 160 q 161 901 129 733 l 171 911 l 350 908 q 353 843 360 893 m 336 953 l 246 954 l 238 961 l 40 1189 q 51 1200 40 1192 q 129 1197 104 1197 q 174 1197 139 1194 q 215 1189 203 1199 l 336 1004 q 336 953 346 968 z "},"Í":{"ha":360,"x_min":19,"x_max":507,"o":"m 353 843 q 319 635 336 739 q 296 422 301 511 q 285 353 286 397 q 279 281 282 294 q 242 -17 269 181 q 190 -31 226 -31 q 133 -33 144 -29 q 36 -43 101 -37 q 19 -29 29 -42 q 117 649 43 160 q 161 901 129 733 l 171 911 l 350 908 q 353 843 360 893 m 507 1197 l 301 963 l 211 961 q 211 1013 203 976 l 332 1197 q 374 1206 346 1207 q 418 1206 408 1203 q 496 1208 443 1206 q 507 1197 507 1200 z "},"Î":{"ha":360,"x_min":19,"x_max":415,"o":"m 353 843 q 319 635 336 739 q 296 422 301 511 q 285 353 286 397 q 279 281 282 294 q 242 -17 269 181 q 190 -31 226 -31 q 133 -33 144 -29 q 36 -43 101 -37 q 19 -29 29 -42 q 117 649 43 160 q 161 901 129 733 l 171 911 l 350 908 q 353 843 360 893 m 415 963 l 411 961 q 332 965 388 961 q 321 969 329 964 q 282 1056 307 1001 q 274 1054 279 1063 q 215 968 253 1014 q 178 964 215 968 q 128 960 161 963 l 124 963 q 290 1206 136 979 q 301 1206 296 1210 q 356 1092 303 1204 q 415 963 408 981 z "},"Ï":{"ha":360,"x_min":19,"x_max":443,"o":"m 353 843 q 319 635 336 739 q 296 422 301 511 q 285 353 286 397 q 279 281 282 294 q 242 -17 269 181 q 190 -31 226 -31 q 133 -33 144 -29 q 36 -43 101 -37 q 19 -29 29 -42 q 117 649 43 160 q 161 901 129 733 l 171 911 l 350 908 q 353 843 360 893 m 443 1047 q 426 1005 443 1022 q 383 988 408 988 q 341 1005 358 988 q 324 1047 324 1022 q 341 1089 324 1071 q 383 1107 358 1107 q 426 1089 408 1107 q 443 1047 443 1071 m 268 1047 q 251 1005 268 1022 q 208 988 233 988 q 166 1005 183 988 q 149 1047 149 1022 q 166 1089 149 1071 q 208 1107 183 1107 q 251 1089 233 1107 q 268 1047 268 1071 z "},"Ð":{"ha":640,"x_min":-37,"x_max":639,"o":"m 635 525 q 592 258 639 357 q 486 82 547 156 q 140 -93 339 -94 q 111 404 147 -74 l -33 385 l -37 479 l 104 500 l 69 957 q 128 961 78 961 q 360 924 254 961 q 571 742 515 868 q 567 754 568 750 q 568 754 567 754 q 603 686 576 754 q 635 525 633 604 m 464 525 q 392 710 464 639 q 275 776 343 757 q 250 761 250 782 q 251 750 250 757 l 272 524 l 363 536 l 365 440 l 281 428 l 306 143 q 415 275 382 208 q 464 525 465 374 z "},"Ñ":{"ha":594,"x_min":1,"x_max":640,"o":"m 638 936 q 635 908 640 924 q 625 878 631 892 q 469 319 579 708 q 429 181 460 272 q 353 -99 396 26 q 333 -83 338 -100 q 326 -57 331 -71 q 193 310 285 67 l 176 322 q 167 264 165 303 q 164 203 167 217 q 160 -79 164 -22 q 144 -94 158 -92 q 122 -99 124 -99 q 67 -108 108 -99 q 8 -112 32 -115 l 1 -86 q 40 813 13 215 l 47 939 q 66 930 63 943 q 72 904 69 917 q 108 825 88 879 q 278 469 165 707 q 293 429 285 450 q 319 404 301 408 l 326 414 q 417 865 354 565 q 429 907 417 897 q 638 936 528 936 m 444 1107 q 404 997 450 1028 q 361 976 385 976 q 269 1028 332 976 q 222 1047 232 1050 q 213 1026 214 1036 q 214 1015 213 1018 q 211 1004 217 1006 l 160 969 q 153 974 156 967 q 154 1064 143 1024 q 222 1138 171 1119 q 257 1133 233 1138 q 305 1106 274 1131 q 353 1082 336 1082 q 367 1085 360 1082 q 374 1107 374 1094 q 374 1113 372 1111 l 431 1151 q 435 1150 433 1154 q 444 1107 446 1124 z "},"Ò":{"ha":678,"x_min":-6,"x_max":671,"o":"m 615 736 q 671 485 671 626 q 578 128 671 290 q 497 6 569 97 q 399 -53 440 -42 q 350 -74 382 -68 q 299 -83 324 -79 q 153 -38 221 -85 q 51 81 86 8 q -6 349 -6 196 q 21 546 -6 450 q 242 886 85 782 q 357 911 294 911 q 507 863 446 911 q 615 736 550 835 m 453 586 q 367 642 410 642 q 299 614 340 642 q 200 288 194 513 q 310 135 225 147 q 429 236 372 135 q 479 458 479 357 q 453 586 479 531 m 492 951 l 401 953 l 393 960 l 197 1186 q 208 1197 197 1190 q 286 1194 261 1194 q 331 1194 296 1193 q 372 1186 358 1197 l 492 1003 q 492 951 501 967 z "},"Ó":{"ha":678,"x_min":-6,"x_max":671,"o":"m 615 736 q 671 485 671 626 q 578 128 671 290 q 497 6 569 97 q 399 -53 440 -42 q 350 -74 382 -68 q 299 -83 324 -79 q 153 -38 221 -85 q 51 81 86 8 q -6 349 -6 196 q 21 546 -6 450 q 242 886 85 782 q 357 911 294 911 q 507 863 446 911 q 615 736 550 835 m 453 586 q 367 642 410 642 q 299 614 340 642 q 200 288 194 513 q 310 135 225 147 q 429 236 372 135 q 479 458 479 357 q 453 586 479 531 m 600 1196 l 394 961 l 304 960 q 304 1011 294 975 l 425 1196 q 467 1204 439 1206 q 511 1204 501 1201 q 589 1207 536 1204 q 600 1196 600 1199 z "},"Ô":{"ha":678,"x_min":-6,"x_max":671,"o":"m 615 736 q 671 485 671 626 q 578 128 671 290 q 497 6 569 97 q 399 -53 440 -42 q 350 -74 382 -68 q 299 -83 324 -79 q 153 -38 221 -85 q 51 81 86 8 q -6 349 -6 196 q 21 546 -6 450 q 242 886 85 782 q 357 911 294 911 q 507 863 446 911 q 615 736 550 835 m 453 586 q 367 642 410 642 q 299 614 340 642 q 200 288 194 513 q 310 135 225 147 q 429 236 372 135 q 479 458 479 357 q 453 586 479 531 m 535 958 l 531 957 q 453 961 507 957 q 442 965 449 960 q 401 1051 428 997 q 393 1050 399 1058 q 335 964 372 1010 q 297 960 335 964 q 247 957 281 958 l 243 958 q 411 1201 256 975 q 421 1201 415 1206 q 476 1088 424 1200 q 535 958 528 976 z "},"Õ":{"ha":678,"x_min":-6,"x_max":671,"o":"m 615 736 q 671 485 671 626 q 578 128 671 290 q 497 6 569 97 q 399 -53 440 -42 q 350 -74 382 -68 q 299 -83 324 -79 q 153 -38 221 -85 q 51 81 86 8 q -6 349 -6 196 q 21 546 -6 450 q 242 886 85 782 q 357 911 294 911 q 507 863 446 911 q 615 736 550 835 m 453 586 q 367 642 410 642 q 299 614 340 642 q 200 288 194 513 q 310 135 225 147 q 429 236 372 135 q 479 458 479 357 q 453 586 479 531 m 542 1139 q 501 1029 546 1060 q 457 1007 481 1007 q 365 1060 428 1007 q 318 1078 329 1082 q 308 1058 310 1067 q 311 1047 310 1050 q 308 1036 314 1038 l 256 1000 q 250 1006 251 997 q 251 1096 239 1054 q 318 1169 268 1151 q 353 1164 331 1169 q 402 1138 371 1163 q 450 1114 433 1114 q 464 1117 457 1114 q 469 1139 469 1126 q 471 1144 469 1142 l 528 1182 q 532 1182 529 1186 q 542 1139 542 1154 z "},"Ö":{"ha":678,"x_min":-6,"x_max":671,"o":"m 615 736 q 671 485 671 626 q 578 128 671 290 q 497 6 569 97 q 399 -53 440 -42 q 350 -74 382 -68 q 299 -83 324 -79 q 153 -38 221 -85 q 51 81 86 8 q -6 349 -6 196 q 21 546 -6 450 q 242 886 85 782 q 357 911 294 911 q 507 863 446 911 q 615 736 550 835 m 453 586 q 367 642 410 642 q 299 614 340 642 q 200 288 194 513 q 310 135 225 147 q 429 236 372 135 q 479 458 479 357 q 453 586 479 531 m 533 1047 q 516 1005 533 1022 q 474 988 499 988 q 431 1005 449 988 q 414 1047 414 1022 q 431 1089 414 1071 q 474 1107 449 1107 q 516 1089 499 1107 q 533 1047 533 1071 m 358 1047 q 341 1005 358 1022 q 299 988 324 988 q 256 1005 274 988 q 239 1047 239 1022 q 256 1089 239 1071 q 299 1107 274 1107 q 341 1089 324 1107 q 358 1047 358 1071 z "},"×":{"ha":829,"x_min":44,"x_max":789,"o":"m 789 667 q 754 617 785 638 q 563 439 690 558 q 575 424 572 429 q 651 319 599 388 q 726 215 704 251 q 696 168 724 194 q 654 124 661 135 l 586 43 q 565 39 569 36 q 401 271 510 117 q 203 75 338 203 q 161 107 185 78 q 122 153 131 146 q 50 226 99 176 q 46 250 44 247 q 271 465 121 325 q 111 710 214 546 l 113 722 l 250 857 q 290 821 267 856 q 431 614 336 751 q 658 818 504 685 l 669 818 l 789 667 z "},"Ù":{"ha":703,"x_min":0,"x_max":665,"o":"m 665 806 q 556 149 640 358 q 314 -92 475 -53 q 263 -97 289 -97 q 136 -64 196 -97 q 40 39 71 -26 q 0 258 0 125 q 44 604 0 394 q 119 926 82 765 q 144 956 139 956 l 304 935 q 321 907 326 932 q 247 611 289 808 q 201 315 206 403 q 215 199 199 251 q 275 128 235 138 q 404 264 365 129 q 435 475 414 297 q 461 807 458 679 q 474 826 461 821 l 639 833 q 665 806 664 835 m 513 904 l 422 906 l 414 913 l 217 1140 q 228 1151 217 1143 q 306 1149 281 1149 q 350 1149 315 1146 q 392 1140 379 1150 l 513 956 q 513 904 522 919 z "},"Ú":{"ha":703,"x_min":0,"x_max":665,"o":"m 665 806 q 556 149 640 358 q 314 -92 475 -53 q 263 -97 289 -97 q 136 -64 196 -97 q 40 39 71 -26 q 0 258 0 125 q 44 604 0 394 q 119 926 82 765 q 144 956 139 956 l 304 935 q 321 907 326 932 q 247 611 289 808 q 201 315 206 403 q 215 199 199 251 q 275 128 235 138 q 404 264 365 129 q 435 475 414 297 q 461 807 458 679 q 474 826 461 821 l 639 833 q 665 806 664 835 m 664 1153 l 460 918 l 369 917 q 369 968 360 933 l 489 1153 q 531 1161 503 1163 q 575 1161 567 1158 q 653 1164 600 1161 q 664 1153 664 1157 z "},"Û":{"ha":703,"x_min":0,"x_max":665,"o":"m 665 806 q 556 149 640 358 q 314 -92 475 -53 q 263 -97 289 -97 q 136 -64 196 -97 q 40 39 71 -26 q 0 258 0 125 q 44 604 0 394 q 119 926 82 765 q 144 956 139 956 l 304 935 q 321 907 326 932 q 247 611 289 808 q 201 315 206 403 q 215 199 199 251 q 275 128 235 138 q 404 264 365 129 q 435 475 414 297 q 461 807 458 679 q 474 826 461 821 l 639 833 q 665 806 664 835 m 571 972 l 567 969 q 489 974 543 969 q 476 979 485 974 q 438 1064 464 1011 q 429 1063 435 1072 q 371 976 408 1024 q 333 972 371 976 q 283 969 317 972 l 279 972 q 446 1215 292 988 q 457 1214 451 1219 q 511 1101 458 1213 q 571 972 564 989 z "},"Ü":{"ha":703,"x_min":0,"x_max":665,"o":"m 665 806 q 556 149 640 358 q 314 -92 475 -53 q 263 -97 289 -97 q 136 -64 196 -97 q 40 39 71 -26 q 0 258 0 125 q 44 604 0 394 q 119 926 82 765 q 144 956 139 956 l 304 935 q 321 907 326 932 q 247 611 289 808 q 201 315 206 403 q 215 199 199 251 q 275 128 235 138 q 404 264 365 129 q 435 475 414 297 q 461 807 458 679 q 474 826 461 821 l 639 833 q 665 806 664 835 m 546 1047 q 528 1005 546 1022 q 486 988 511 988 q 444 1005 461 988 q 426 1047 426 1022 q 444 1089 426 1071 q 486 1107 461 1107 q 528 1089 511 1107 q 546 1047 546 1071 m 371 1047 q 353 1005 371 1022 q 311 988 336 988 q 269 1005 288 988 q 251 1047 251 1022 q 269 1089 251 1071 q 311 1107 288 1107 q 353 1089 336 1107 q 371 1047 371 1071 z "},"Ý":{"ha":692,"x_min":-1,"x_max":713,"o":"m 713 881 q 570 631 690 849 q 450 406 450 413 q 438 190 444 374 q 424 -29 431 7 q 414 -40 424 -39 l 222 -24 q 207 -7 204 -22 q 247 397 225 185 q 3 878 49 783 q 8 890 -1 888 q 179 899 81 893 q 224 885 210 901 q 344 618 304 690 q 354 608 349 608 q 363 618 360 608 q 490 890 467 857 q 592 892 506 896 q 704 889 692 888 l 713 881 m 601 1164 l 396 929 l 306 928 q 306 979 296 943 l 426 1164 q 468 1172 439 1174 q 513 1172 503 1169 q 590 1175 538 1172 q 601 1164 601 1167 z "},"Þ":{"ha":564,"x_min":1,"x_max":599,"o":"m 596 572 q 474 371 575 436 q 411 340 446 354 q 222 285 328 306 l 167 -60 q 150 -85 168 -75 q 81 -87 140 -89 q 28 -86 28 -86 q 1 -69 4 -83 q 83 776 40 276 q 125 1101 85 792 l 142 1111 q 208 1120 146 1110 q 300 1131 269 1131 q 340 1111 344 1131 l 288 882 q 599 615 599 811 q 596 572 599 594 m 394 642 q 346 690 381 674 q 317 697 335 690 q 292 703 300 703 q 274 697 282 703 l 247 500 q 389 565 326 499 q 394 642 411 604 z "},"à":{"ha":626,"x_min":-1,"x_max":632,"o":"m 628 -3 q 629 -19 632 -10 q 618 -29 626 -29 l 467 -68 q 456 -71 461 -71 q 440 -51 442 -71 l 414 49 q 408 73 411 61 q 394 89 404 85 q 358 89 358 89 q 294 86 333 88 q 238 86 275 88 q 203 59 207 83 q 192 -11 200 35 q 185 -33 190 -19 q 172 -39 182 -36 q 8 -28 94 -36 q 6 -6 -1 -19 q 144 458 64 193 q 281 906 282 896 q 286 922 281 906 q 299 938 292 938 q 317 917 306 938 q 461 454 322 886 q 543 219 479 397 q 628 -3 617 14 m 349 247 q 356 264 358 250 q 349 289 351 276 l 307 435 q 297 446 301 446 q 290 435 294 446 l 257 289 q 251 250 249 254 q 257 247 253 247 l 349 247 m 388 963 l 297 964 l 289 971 l 93 1199 q 104 1210 93 1203 q 182 1207 157 1207 q 226 1207 192 1204 q 268 1199 254 1210 l 388 1014 q 388 963 397 979 z "},"á":{"ha":626,"x_min":-1,"x_max":632,"o":"m 628 -3 q 629 -19 632 -10 q 618 -29 626 -29 l 467 -68 q 456 -71 461 -71 q 440 -51 442 -71 l 414 49 q 408 73 411 61 q 394 89 404 85 q 358 89 358 89 q 294 86 333 88 q 238 86 275 88 q 203 59 207 83 q 192 -11 200 35 q 185 -33 190 -19 q 172 -39 182 -36 q 8 -28 94 -36 q 6 -6 -1 -19 q 144 458 64 193 q 281 906 282 896 q 286 922 281 906 q 299 938 292 938 q 317 917 306 938 q 461 454 322 886 q 543 219 479 397 q 628 -3 617 14 m 349 247 q 356 264 358 250 q 349 289 351 276 l 307 435 q 297 446 301 446 q 290 435 294 446 l 257 289 q 251 250 249 254 q 257 247 253 247 l 349 247 m 529 1203 l 324 968 l 233 967 q 233 1018 224 983 l 354 1203 q 396 1211 367 1214 q 440 1211 431 1210 q 518 1214 465 1211 q 529 1203 529 1207 z "},"â":{"ha":626,"x_min":-1,"x_max":632,"o":"m 628 -3 q 629 -19 632 -10 q 618 -29 626 -29 l 467 -68 q 456 -71 461 -71 q 440 -51 442 -71 l 414 49 q 408 73 411 61 q 394 89 404 85 q 358 89 358 89 q 294 86 333 88 q 238 86 275 88 q 203 59 207 83 q 192 -11 200 35 q 185 -33 190 -19 q 172 -39 182 -36 q 8 -28 94 -36 q 6 -6 -1 -19 q 144 458 64 193 q 281 906 282 896 q 286 922 281 906 q 299 938 292 938 q 317 917 306 938 q 461 454 322 886 q 543 219 479 397 q 628 -3 617 14 m 349 247 q 356 264 358 250 q 349 289 351 276 l 307 435 q 297 446 301 446 q 290 435 294 446 l 257 289 q 251 250 249 254 q 257 247 253 247 l 349 247 m 440 958 l 436 957 q 357 961 413 957 q 346 965 354 960 q 307 1051 332 997 q 299 1050 303 1058 q 240 964 278 1010 q 203 960 240 964 q 153 957 186 958 l 149 958 q 315 1201 161 975 q 326 1201 321 1206 q 380 1088 328 1200 q 440 958 432 976 z "},"ã":{"ha":626,"x_min":-1,"x_max":632,"o":"m 628 -3 q 629 -19 632 -10 q 618 -29 626 -29 l 467 -68 q 456 -71 461 -71 q 440 -51 442 -71 l 414 49 q 408 73 411 61 q 394 89 404 85 q 358 89 358 89 q 294 86 333 88 q 238 86 275 88 q 203 59 207 83 q 192 -11 200 35 q 185 -33 190 -19 q 172 -39 182 -36 q 8 -28 94 -36 q 6 -6 -1 -19 q 144 458 64 193 q 281 906 282 896 q 286 922 281 906 q 299 938 292 938 q 317 917 306 938 q 461 454 322 886 q 543 219 479 397 q 628 -3 617 14 m 349 247 q 356 264 358 250 q 349 289 351 276 l 307 435 q 297 446 301 446 q 290 435 294 446 l 257 289 q 251 250 249 254 q 257 247 253 247 l 349 247 m 463 1114 q 422 1003 468 1035 q 379 982 403 982 q 286 1033 350 982 q 240 1053 250 1056 q 231 1032 232 1042 q 232 1021 231 1025 q 229 1011 235 1011 l 178 975 q 171 979 172 972 q 172 1071 160 1029 q 240 1143 189 1125 q 275 1139 251 1143 q 323 1112 292 1136 q 371 1088 354 1088 q 385 1090 378 1088 q 392 1114 392 1101 q 392 1119 390 1117 l 449 1157 q 453 1156 451 1161 q 463 1114 464 1129 z "},"ä":{"ha":626,"x_min":-1,"x_max":632,"o":"m 628 -3 q 629 -19 632 -10 q 618 -29 626 -29 l 467 -68 q 456 -71 461 -71 q 440 -51 442 -71 l 414 49 q 408 73 411 61 q 394 89 404 85 q 358 89 358 89 q 294 86 333 88 q 238 86 275 88 q 203 59 207 83 q 192 -11 200 35 q 185 -33 190 -19 q 172 -39 182 -36 q 8 -28 94 -36 q 6 -6 -1 -19 q 144 458 64 193 q 281 906 282 896 q 286 922 281 906 q 299 938 292 938 q 317 917 306 938 q 461 454 322 886 q 543 219 479 397 q 628 -3 617 14 m 349 247 q 356 264 358 250 q 349 289 351 276 l 307 435 q 297 446 301 446 q 290 435 294 446 l 257 289 q 251 250 249 254 q 257 247 253 247 l 349 247 m 443 1047 q 426 1005 443 1022 q 383 988 408 988 q 341 1005 358 988 q 324 1047 324 1022 q 341 1089 324 1071 q 383 1107 358 1107 q 426 1089 408 1107 q 443 1047 443 1071 m 268 1047 q 251 1005 268 1022 q 208 988 233 988 q 166 1005 183 988 q 149 1047 149 1022 q 166 1089 149 1071 q 208 1107 183 1107 q 251 1089 233 1107 q 268 1047 268 1071 z "},"å":{"ha":626,"x_min":-1,"x_max":632,"o":"m 628 -3 q 629 -19 632 -10 q 618 -29 626 -29 l 467 -68 q 456 -71 461 -71 q 440 -51 442 -71 l 414 49 q 408 73 411 61 q 394 89 404 85 q 358 89 358 89 q 294 86 333 88 q 238 86 275 88 q 203 59 207 83 q 192 -11 200 35 q 185 -33 190 -19 q 172 -39 182 -36 q 8 -28 94 -36 q 6 -6 -1 -19 q 144 458 64 193 q 281 906 282 896 q 286 922 281 906 q 299 938 292 938 q 317 917 306 938 q 461 454 322 886 q 543 219 479 397 q 628 -3 617 14 m 349 247 q 356 264 358 250 q 349 289 351 276 l 307 435 q 297 446 301 446 q 290 435 294 446 l 257 289 q 251 250 249 254 q 257 247 253 247 l 349 247 m 422 1083 q 388 999 422 1033 q 304 965 353 965 q 221 999 256 965 q 186 1083 186 1033 q 221 1167 186 1132 q 304 1201 256 1201 q 388 1167 353 1201 q 422 1083 422 1132 m 342 1093 q 301 1133 342 1133 q 263 1093 263 1133 q 301 1053 263 1053 q 342 1093 342 1053 z "},"ç":{"ha":592,"x_min":-1,"x_max":636,"o":"m 635 897 q 569 706 636 840 q 558 696 565 696 q 535 712 553 696 q 506 730 518 728 q 478 732 493 732 q 331 638 408 732 q 246 497 286 583 q 199 325 200 396 q 238 182 197 235 q 296 142 267 142 l 296 139 q 351 131 325 131 q 453 175 411 131 q 504 254 467 192 q 514 261 510 261 q 522 254 518 261 q 524 249 522 251 q 578 117 529 239 q 581 79 588 93 q 463 -36 544 4 q 325 -72 399 -68 q 311 -151 319 -100 q 472 -275 472 -183 q 401 -389 472 -344 q 269 -428 340 -428 q 156 -401 215 -428 q 83 -321 83 -368 q 140 -279 83 -310 q 172 -319 146 -300 q 219 -339 199 -339 q 245 -323 232 -339 q 258 -294 258 -307 q 183 -215 258 -250 q 203 -170 190 -201 q 243 -68 215 -139 q 157 -43 192 -62 q 71 39 115 -19 q -1 293 -1 135 q 26 483 -1 397 q 167 738 68 610 q 510 942 325 942 q 635 897 607 942 z "},"è":{"ha":465,"x_min":11,"x_max":472,"o":"m 472 646 q 454 624 472 628 q 238 621 439 625 q 222 618 226 621 q 214 601 218 615 q 213 515 213 596 q 213 429 211 436 q 239 400 214 400 l 385 401 q 410 385 410 401 q 411 265 411 325 q 400 251 411 251 l 221 246 q 197 218 197 244 q 194 53 196 218 q 201 28 194 32 q 235 24 208 25 l 438 18 q 446 11 443 18 q 442 -151 444 14 q 437 -168 443 -164 q 422 -172 431 -172 l 38 -168 q 11 -147 13 -168 q 28 826 19 336 q 33 838 28 836 l 456 846 q 468 826 468 843 l 472 646 m 332 882 l 242 883 l 233 890 l 36 1118 q 47 1129 36 1122 q 125 1126 100 1126 q 169 1126 135 1124 q 211 1118 199 1128 l 332 933 q 332 882 342 899 z "},"é":{"ha":465,"x_min":11,"x_max":472,"o":"m 472 646 q 454 624 472 628 q 238 621 439 625 q 222 618 226 621 q 214 601 218 615 q 213 515 213 596 q 213 429 211 436 q 239 400 214 400 l 385 401 q 410 385 410 401 q 411 265 411 325 q 400 251 411 251 l 221 246 q 197 218 197 244 q 194 53 196 218 q 201 28 194 32 q 235 24 208 25 l 438 18 q 446 11 443 18 q 442 -151 444 14 q 437 -168 443 -164 q 422 -172 431 -172 l 38 -168 q 11 -147 13 -168 q 28 826 19 336 q 33 838 28 836 l 456 846 q 468 826 468 843 l 472 646 m 461 1118 l 256 883 l 165 882 q 165 933 157 899 l 286 1118 q 328 1126 300 1128 q 372 1126 363 1124 q 450 1129 397 1126 q 461 1118 461 1122 z "},"ê":{"ha":465,"x_min":11,"x_max":472,"o":"m 472 646 q 454 624 472 628 q 238 621 439 625 q 222 618 226 621 q 214 601 218 615 q 213 515 213 596 q 213 429 211 436 q 239 400 214 400 l 385 401 q 410 385 410 401 q 411 265 411 325 q 400 251 411 251 l 221 246 q 197 218 197 244 q 194 53 196 218 q 201 28 194 32 q 235 24 208 25 l 438 18 q 446 11 443 18 q 442 -151 444 14 q 437 -168 443 -164 q 422 -172 431 -172 l 38 -168 q 11 -147 13 -168 q 28 826 19 336 q 33 838 28 836 l 456 846 q 468 826 468 843 l 472 646 m 389 922 l 385 919 q 307 924 361 919 q 296 929 304 924 q 256 1014 282 961 q 247 1013 253 1022 q 190 926 226 974 q 151 922 189 926 q 101 919 135 922 l 99 922 q 265 1165 111 938 q 274 1166 269 1169 q 330 1051 278 1163 q 389 922 382 939 z "},"ë":{"ha":465,"x_min":11,"x_max":472,"o":"m 472 646 q 454 624 472 628 q 238 621 439 625 q 222 618 226 621 q 214 601 218 615 q 213 515 213 596 q 213 429 211 436 q 239 400 214 400 l 385 401 q 410 385 410 401 q 411 265 411 325 q 400 251 411 251 l 221 246 q 197 218 197 244 q 194 53 196 218 q 201 28 194 32 q 235 24 208 25 l 438 18 q 446 11 443 18 q 442 -151 444 14 q 437 -168 443 -164 q 422 -172 431 -172 l 38 -168 q 11 -147 13 -168 q 28 826 19 336 q 33 838 28 836 l 456 846 q 468 826 468 843 l 472 646 m 396 972 q 378 931 396 949 q 338 913 361 913 q 295 931 313 913 q 278 972 278 949 q 295 1015 278 997 q 338 1032 313 1032 q 378 1015 361 1032 q 396 972 396 997 m 222 972 q 205 931 222 949 q 163 913 188 913 q 120 931 138 913 q 103 972 103 949 q 120 1015 103 997 q 163 1032 138 1032 q 205 1015 188 1032 q 222 972 222 997 z "},"ì":{"ha":360,"x_min":19,"x_max":360,"o":"m 353 843 q 319 635 336 739 q 296 422 301 511 q 285 353 286 397 q 279 281 282 294 q 242 -17 269 181 q 190 -31 226 -31 q 133 -33 144 -29 q 36 -43 101 -37 q 19 -29 29 -42 q 117 649 43 160 q 161 901 129 733 l 171 911 l 350 908 q 353 843 360 893 m 336 953 l 246 954 l 238 961 l 40 1189 q 51 1200 40 1192 q 129 1197 104 1197 q 174 1197 139 1194 q 215 1189 203 1199 l 336 1004 q 336 953 346 968 z "},"í":{"ha":360,"x_min":19,"x_max":507,"o":"m 353 843 q 319 635 336 739 q 296 422 301 511 q 285 353 286 397 q 279 281 282 294 q 242 -17 269 181 q 190 -31 226 -31 q 133 -33 144 -29 q 36 -43 101 -37 q 19 -29 29 -42 q 117 649 43 160 q 161 901 129 733 l 171 911 l 350 908 q 353 843 360 893 m 507 1197 l 301 963 l 211 961 q 211 1013 203 976 l 332 1197 q 374 1206 346 1207 q 418 1206 408 1203 q 496 1208 443 1206 q 507 1197 507 1200 z "},"î":{"ha":360,"x_min":19,"x_max":415,"o":"m 353 843 q 319 635 336 739 q 296 422 301 511 q 285 353 286 397 q 279 281 282 294 q 242 -17 269 181 q 190 -31 226 -31 q 133 -33 144 -29 q 36 -43 101 -37 q 19 -29 29 -42 q 117 649 43 160 q 161 901 129 733 l 171 911 l 350 908 q 353 843 360 893 m 415 963 l 411 961 q 332 965 388 961 q 321 969 329 964 q 282 1056 307 1001 q 274 1054 279 1063 q 215 968 253 1014 q 178 964 215 968 q 128 960 161 963 l 124 963 q 290 1206 136 979 q 301 1206 296 1210 q 356 1092 303 1204 q 415 963 408 981 z "},"ï":{"ha":360,"x_min":19,"x_max":443,"o":"m 353 843 q 319 635 336 739 q 296 422 301 511 q 285 353 286 397 q 279 281 282 294 q 242 -17 269 181 q 190 -31 226 -31 q 133 -33 144 -29 q 36 -43 101 -37 q 19 -29 29 -42 q 117 649 43 160 q 161 901 129 733 l 171 911 l 350 908 q 353 843 360 893 m 443 1047 q 426 1005 443 1022 q 383 988 408 988 q 341 1005 358 988 q 324 1047 324 1022 q 341 1089 324 1071 q 383 1107 358 1107 q 426 1089 408 1107 q 443 1047 443 1071 m 268 1047 q 251 1005 268 1022 q 208 988 233 988 q 166 1005 183 988 q 149 1047 149 1022 q 166 1089 149 1071 q 208 1107 183 1107 q 251 1089 233 1107 q 268 1047 268 1071 z "},"ð":{"ha":588,"x_min":-19,"x_max":596,"o":"m 596 783 l 483 724 q 540 617 517 675 q 579 456 572 531 q 582 347 581 401 q 550 154 585 256 q 425 -33 507 28 q 290 -87 351 -87 q 197 -72 264 -87 q 52 12 124 -56 q -19 183 -19 79 q 26 354 -19 264 q 125 474 65 433 q 243 522 164 499 q 279 528 260 528 q 368 501 322 528 q 350 564 353 556 q 308 631 335 606 l 169 557 l 136 618 l 236 671 q 150 681 199 682 q 122 675 140 683 q 99 667 103 667 q 90 678 92 667 q 76 815 76 760 q 82 865 76 850 q 193 886 106 886 q 301 871 264 886 q 438 778 378 840 l 564 844 l 596 783 m 360 200 q 367 247 367 224 q 342 323 367 290 q 278 356 318 356 q 212 328 243 356 q 168 257 181 300 q 161 210 161 233 q 183 136 161 167 q 249 101 207 101 q 315 128 283 101 q 360 200 346 156 z "},"ñ":{"ha":594,"x_min":1,"x_max":640,"o":"m 638 936 q 635 908 640 924 q 625 878 631 892 q 469 319 579 708 q 429 181 460 272 q 353 -99 396 26 q 333 -83 338 -100 q 326 -57 331 -71 q 193 310 285 67 l 176 322 q 167 264 165 303 q 164 203 167 217 q 160 -79 164 -22 q 144 -94 158 -92 q 122 -99 124 -99 q 67 -108 108 -99 q 8 -112 32 -115 l 1 -86 q 40 813 13 215 l 47 939 q 66 930 63 943 q 72 904 69 917 q 108 825 88 879 q 278 469 165 707 q 293 429 285 450 q 319 404 301 408 l 326 414 q 417 865 354 565 q 429 907 417 897 q 638 936 528 936 m 444 1107 q 404 997 450 1028 q 361 976 385 976 q 269 1028 332 976 q 222 1047 232 1050 q 213 1026 214 1036 q 214 1015 213 1018 q 211 1004 217 1006 l 160 969 q 153 974 156 967 q 154 1064 143 1024 q 222 1138 171 1119 q 257 1133 233 1138 q 305 1106 274 1131 q 353 1082 336 1082 q 367 1085 360 1082 q 374 1107 374 1094 q 374 1113 372 1111 l 431 1151 q 435 1150 433 1154 q 444 1107 446 1124 z "},"ò":{"ha":678,"x_min":-6,"x_max":671,"o":"m 615 736 q 671 485 671 626 q 578 128 671 290 q 497 6 569 97 q 399 -53 440 -42 q 350 -74 382 -68 q 299 -83 324 -79 q 153 -38 221 -85 q 51 81 86 8 q -6 349 -6 196 q 21 546 -6 450 q 242 886 85 782 q 357 911 294 911 q 507 863 446 911 q 615 736 550 835 m 453 586 q 367 642 410 642 q 299 614 340 642 q 200 288 194 513 q 310 135 225 147 q 429 236 372 135 q 479 458 479 357 q 453 586 479 531 m 492 951 l 401 953 l 393 960 l 197 1186 q 208 1197 197 1190 q 286 1194 261 1194 q 331 1194 296 1193 q 372 1186 358 1197 l 492 1003 q 492 951 501 967 z "},"ó":{"ha":678,"x_min":-6,"x_max":671,"o":"m 615 736 q 671 485 671 626 q 578 128 671 290 q 497 6 569 97 q 399 -53 440 -42 q 350 -74 382 -68 q 299 -83 324 -79 q 153 -38 221 -85 q 51 81 86 8 q -6 349 -6 196 q 21 546 -6 450 q 242 886 85 782 q 357 911 294 911 q 507 863 446 911 q 615 736 550 835 m 453 586 q 367 642 410 642 q 299 614 340 642 q 200 288 194 513 q 310 135 225 147 q 429 236 372 135 q 479 458 479 357 q 453 586 479 531 m 600 1196 l 394 961 l 304 960 q 304 1011 294 975 l 425 1196 q 467 1204 439 1206 q 511 1204 501 1201 q 589 1207 536 1204 q 600 1196 600 1199 z "},"ô":{"ha":678,"x_min":-6,"x_max":671,"o":"m 615 736 q 671 485 671 626 q 578 128 671 290 q 497 6 569 97 q 399 -53 440 -42 q 350 -74 382 -68 q 299 -83 324 -79 q 153 -38 221 -85 q 51 81 86 8 q -6 349 -6 196 q 21 546 -6 450 q 242 886 85 782 q 357 911 294 911 q 507 863 446 911 q 615 736 550 835 m 453 586 q 367 642 410 642 q 299 614 340 642 q 200 288 194 513 q 310 135 225 147 q 429 236 372 135 q 479 458 479 357 q 453 586 479 531 m 535 958 l 531 957 q 453 961 507 957 q 442 965 449 960 q 401 1051 428 997 q 393 1050 399 1058 q 335 964 372 1010 q 297 960 335 964 q 247 957 281 958 l 243 958 q 411 1201 256 975 q 421 1201 415 1206 q 476 1088 424 1200 q 535 958 528 976 z "},"õ":{"ha":678,"x_min":-6,"x_max":671,"o":"m 615 736 q 671 485 671 626 q 578 128 671 290 q 497 6 569 97 q 399 -53 440 -42 q 350 -74 382 -68 q 299 -83 324 -79 q 153 -38 221 -85 q 51 81 86 8 q -6 349 -6 196 q 21 546 -6 450 q 242 886 85 782 q 357 911 294 911 q 507 863 446 911 q 615 736 550 835 m 453 586 q 367 642 410 642 q 299 614 340 642 q 200 288 194 513 q 310 135 225 147 q 429 236 372 135 q 479 458 479 357 q 453 586 479 531 m 542 1139 q 501 1029 546 1060 q 457 1007 481 1007 q 365 1060 428 1007 q 318 1078 329 1082 q 308 1058 310 1067 q 311 1047 310 1050 q 308 1036 314 1038 l 256 1000 q 250 1006 251 997 q 251 1096 239 1054 q 318 1169 268 1151 q 353 1164 331 1169 q 402 1138 371 1163 q 450 1114 433 1114 q 464 1117 457 1114 q 469 1139 469 1126 q 471 1144 469 1142 l 528 1182 q 532 1182 529 1186 q 542 1139 542 1154 z "},"ö":{"ha":678,"x_min":-6,"x_max":671,"o":"m 615 736 q 671 485 671 626 q 578 128 671 290 q 497 6 569 97 q 399 -53 440 -42 q 350 -74 382 -68 q 299 -83 324 -79 q 153 -38 221 -85 q 51 81 86 8 q -6 349 -6 196 q 21 546 -6 450 q 242 886 85 782 q 357 911 294 911 q 507 863 446 911 q 615 736 550 835 m 453 586 q 367 642 410 642 q 299 614 340 642 q 200 288 194 513 q 310 135 225 147 q 429 236 372 135 q 479 458 479 357 q 453 586 479 531 m 533 1047 q 516 1005 533 1022 q 474 988 499 988 q 431 1005 449 988 q 414 1047 414 1022 q 431 1089 414 1071 q 474 1107 449 1107 q 516 1089 499 1107 q 533 1047 533 1071 m 358 1047 q 341 1005 358 1022 q 299 988 324 988 q 256 1005 274 988 q 239 1047 239 1022 q 256 1089 239 1071 q 299 1107 274 1107 q 341 1089 324 1107 q 358 1047 358 1071 z "},"ù":{"ha":703,"x_min":0,"x_max":665,"o":"m 665 806 q 556 149 640 358 q 314 -92 475 -53 q 263 -97 289 -97 q 136 -64 196 -97 q 40 39 71 -26 q 0 258 0 125 q 44 604 0 394 q 119 926 82 765 q 144 956 139 956 l 304 935 q 321 907 326 932 q 247 611 289 808 q 201 315 206 403 q 215 199 199 251 q 275 128 235 138 q 404 264 365 129 q 435 475 414 297 q 461 807 458 679 q 474 826 461 821 l 639 833 q 665 806 664 835 m 513 904 l 422 906 l 414 913 l 217 1140 q 228 1151 217 1143 q 306 1149 281 1149 q 350 1149 315 1146 q 392 1140 379 1150 l 513 956 q 513 904 522 919 z "},"ú":{"ha":703,"x_min":0,"x_max":665,"o":"m 665 806 q 556 149 640 358 q 314 -92 475 -53 q 263 -97 289 -97 q 136 -64 196 -97 q 40 39 71 -26 q 0 258 0 125 q 44 604 0 394 q 119 926 82 765 q 144 956 139 956 l 304 935 q 321 907 326 932 q 247 611 289 808 q 201 315 206 403 q 215 199 199 251 q 275 128 235 138 q 404 264 365 129 q 435 475 414 297 q 461 807 458 679 q 474 826 461 821 l 639 833 q 665 806 664 835 m 664 1153 l 460 918 l 369 917 q 369 968 360 933 l 489 1153 q 531 1161 503 1163 q 575 1161 567 1158 q 653 1164 600 1161 q 664 1153 664 1157 z "},"û":{"ha":703,"x_min":0,"x_max":665,"o":"m 665 806 q 556 149 640 358 q 314 -92 475 -53 q 263 -97 289 -97 q 136 -64 196 -97 q 40 39 71 -26 q 0 258 0 125 q 44 604 0 394 q 119 926 82 765 q 144 956 139 956 l 304 935 q 321 907 326 932 q 247 611 289 808 q 201 315 206 403 q 215 199 199 251 q 275 128 235 138 q 404 264 365 129 q 435 475 414 297 q 461 807 458 679 q 474 826 461 821 l 639 833 q 665 806 664 835 m 571 972 l 567 969 q 489 974 543 969 q 476 979 485 974 q 438 1064 464 1011 q 429 1063 435 1072 q 371 976 408 1024 q 333 972 371 976 q 283 969 317 972 l 279 972 q 446 1215 292 988 q 457 1214 451 1219 q 511 1101 458 1213 q 571 972 564 989 z "},"ü":{"ha":703,"x_min":0,"x_max":665,"o":"m 665 806 q 556 149 640 358 q 314 -92 475 -53 q 263 -97 289 -97 q 136 -64 196 -97 q 40 39 71 -26 q 0 258 0 125 q 44 604 0 394 q 119 926 82 765 q 144 956 139 956 l 304 935 q 321 907 326 932 q 247 611 289 808 q 201 315 206 403 q 215 199 199 251 q 275 128 235 138 q 404 264 365 129 q 435 475 414 297 q 461 807 458 679 q 474 826 461 821 l 639 833 q 665 806 664 835 m 546 1047 q 528 1005 546 1022 q 486 988 511 988 q 444 1005 461 988 q 426 1047 426 1022 q 444 1089 426 1071 q 486 1107 461 1107 q 528 1089 511 1107 q 546 1047 546 1071 m 371 1047 q 353 1005 371 1022 q 311 988 336 988 q 269 1005 288 988 q 251 1047 251 1022 q 269 1089 251 1071 q 311 1107 288 1107 q 353 1089 336 1107 q 371 1047 371 1071 z "},"ý":{"ha":692,"x_min":-1,"x_max":713,"o":"m 713 881 q 570 631 690 849 q 450 406 450 413 q 438 190 444 374 q 424 -29 431 7 q 414 -40 424 -39 l 222 -24 q 207 -7 204 -22 q 247 397 225 185 q 3 878 49 783 q 8 890 -1 888 q 179 899 81 893 q 224 885 210 901 q 344 618 304 690 q 354 608 349 608 q 363 618 360 608 q 490 890 467 857 q 592 892 506 896 q 704 889 692 888 l 713 881 m 601 1164 l 396 929 l 306 928 q 306 979 296 943 l 426 1164 q 468 1172 439 1174 q 513 1172 503 1169 q 590 1175 538 1172 q 601 1164 601 1167 z "},"þ":{"ha":564,"x_min":1,"x_max":599,"o":"m 596 572 q 474 371 575 436 q 411 340 446 354 q 222 285 328 306 l 167 -60 q 150 -85 168 -75 q 81 -87 140 -89 q 28 -86 28 -86 q 1 -69 4 -83 q 83 776 40 276 q 125 1101 85 792 l 142 1111 q 208 1120 146 1110 q 300 1131 269 1131 q 340 1111 344 1131 l 288 882 q 599 615 599 811 q 596 572 599 594 m 394 642 q 346 690 381 674 q 317 697 335 690 q 292 703 300 703 q 274 697 282 703 l 247 500 q 389 565 326 499 q 394 642 411 604 z "},"ÿ":{"ha":692,"x_min":-1,"x_max":713,"o":"m 713 881 q 570 631 690 849 q 450 406 450 413 q 438 190 444 374 q 424 -29 431 7 q 414 -40 424 -39 l 222 -24 q 207 -7 204 -22 q 247 397 225 185 q 3 878 49 783 q 8 890 -1 888 q 179 899 81 893 q 224 885 210 901 q 344 618 304 690 q 354 608 349 608 q 363 618 360 608 q 490 890 467 857 q 592 892 506 896 q 704 889 692 888 l 713 881 m 514 1022 q 496 980 514 997 q 454 963 478 963 q 412 980 429 963 q 394 1022 394 997 q 412 1064 394 1046 q 454 1082 429 1082 q 496 1064 478 1082 q 514 1022 514 1046 m 339 1022 q 322 980 339 997 q 279 963 304 963 q 237 980 254 963 q 219 1022 219 997 q 237 1064 219 1046 q 279 1082 254 1082 q 322 1064 304 1082 q 339 1022 339 1046 z "},"Ž":{"ha":596,"x_min":-11,"x_max":589,"o":"m 579 -46 q 574 -72 581 -72 q 547 -58 578 -72 q 4 190 94 146 q -1 219 -11 197 q 242 693 40 321 q 253 718 253 713 q 235 724 253 722 l 51 708 q 26 710 31 707 q 21 726 22 713 q -3 881 7 781 q 15 897 -3 897 q 277 913 21 897 q 540 931 533 929 q 572 933 561 933 q 589 924 589 933 q 576 890 589 917 l 272 276 q 278 269 267 271 q 533 193 436 226 q 558 168 556 183 q 579 -46 574 78 m 440 1200 q 272 957 428 1183 q 263 957 268 953 q 208 1070 260 958 q 149 1200 156 1182 l 153 1201 q 231 1197 176 1201 q 242 1193 235 1199 q 282 1107 256 1161 q 290 1108 285 1100 q 349 1194 311 1149 q 386 1199 349 1194 q 436 1201 403 1200 l 440 1200 z "},"ž":{"ha":596,"x_min":-11,"x_max":589,"o":"m 579 -46 q 574 -72 581 -72 q 547 -58 578 -72 q 4 190 94 146 q -1 219 -11 197 q 242 693 40 321 q 253 718 253 713 q 235 724 253 722 l 51 708 q 26 710 31 707 q 21 726 22 713 q -3 881 7 781 q 15 897 -3 897 q 277 913 21 897 q 540 931 533 929 q 572 933 561 933 q 589 924 589 933 q 576 890 589 917 l 272 276 q 278 269 267 271 q 533 193 436 226 q 558 168 556 183 q 579 -46 574 78 m 440 1200 q 272 957 428 1183 q 263 957 268 953 q 208 1070 260 958 q 149 1200 156 1182 l 153 1201 q 231 1197 176 1201 q 242 1193 235 1199 q 282 1107 256 1161 q 290 1108 285 1100 q 349 1194 311 1149 q 386 1199 349 1194 q 436 1201 403 1200 l 440 1200 z "},"∂":{"ha":588,"x_min":-19,"x_max":585,"o":"m 582 347 q 550 154 585 256 q 425 -33 507 28 q 290 -87 351 -87 q 197 -72 264 -87 q 52 12 124 -56 q -19 183 -19 79 q 26 354 -19 264 q 125 474 65 433 q 243 522 164 499 q 279 528 260 528 q 368 501 322 528 q 324 614 346 585 q 150 681 271 682 q 122 675 140 683 q 99 667 103 667 q 90 678 92 667 q 76 815 76 760 q 82 865 76 850 q 193 886 106 886 q 301 871 264 886 q 540 617 468 804 q 579 456 572 531 q 582 347 581 401 m 360 200 q 367 247 367 224 q 342 323 367 290 q 278 356 318 356 q 212 328 243 356 q 168 257 181 300 q 161 210 161 233 q 183 136 161 167 q 249 101 207 101 q 315 128 283 101 q 360 200 346 156 z "}}}
